<svg width="22" height="26" viewBox="0 0 22 26" fill="none" xmlns="http://www.w3.org/2000/svg">
<path d="M11 8.66667C10.4165 8.66667 9.85695 8.89494 9.44437 9.30127C9.03179 9.7076 8.8 10.2587 8.8 10.8333V23.8333C8.8 24.408 9.03179 24.9591 9.44437 25.3654C9.85695 25.7717 10.4165 26 11 26C11.5835 26 12.1431 25.7717 12.5556 25.3654C12.9682 24.9591 13.2 24.408 13.2 23.8333V10.8333C13.2 10.2587 12.9682 9.7076 12.5556 9.30127C12.1431 8.89494 11.5835 8.66667 11 8.66667Z" fill="#02E088"/>
<path d="M19.8 0C19.2165 0 18.6569 0.228273 18.2444 0.634602C17.8318 1.04093 17.6 1.59203 17.6 2.16667V23.8333C17.6 24.408 17.8318 24.9591 18.2444 25.3654C18.6569 25.7717 19.2165 26 19.8 26C20.3835 26 20.9431 25.7717 21.3556 25.3654C21.7682 24.9591 22 24.408 22 23.8333V2.16667C22 1.59203 21.7682 1.04093 21.3556 0.634602C20.9431 0.228273 20.3835 0 19.8 0Z" fill="#00A3FF"/>
<path d="M2.2 15.1667C1.61652 15.1667 1.05695 15.3949 0.644366 15.8013C0.231786 16.2076 0 16.7587 0 17.3333V23.8333C0 24.408 0.231786 24.9591 0.644366 25.3654C1.05695 25.7717 1.61652 26 2.2 26C2.78348 26 3.34305 25.7717 3.75563 25.3654C4.16821 24.9591 4.4 24.408 4.4 23.8333V17.3333C4.4 16.7587 4.16821 16.2076 3.75563 15.8013C3.34305 15.3949 2.78348 15.1667 2.2 15.1667Z" fill="#FFC942"/>
</svg>
