<svg width="593" height="386" viewBox="0 0 593 386" fill="none" xmlns="http://www.w3.org/2000/svg">
<rect x="0.384369" y="0.258057" width="592" height="385" rx="10" fill="#2A2753"/>
<circle cx="4.5" cy="4.5" r="4.5" transform="matrix(1 0 0 -1 15.3844 24.2581)" fill="#F32868"/>
<circle cx="4.5" cy="4.5" r="4.5" transform="matrix(1 0 0 -1 34.3844 24.2581)" fill="#F1B552"/>
<circle cx="4.5" cy="4.5" r="4.5" transform="matrix(1 0 0 -1 53.3844 24.2581)" fill="#53EEC6"/>
<path d="M82.3844 19.2581C82.3844 17.0489 84.1752 15.2581 86.3844 15.2581H178.384C180.594 15.2581 182.384 17.0489 182.384 19.2581V33.2581H82.3844V19.2581Z" fill="#F7F7F7"/>
<rect x="5.38437" y="33.2581" width="582" height="347" rx="8" fill="white"/>
<g filter="url(#filter0_d_125_234)">
<rect width="497" height="247" transform="translate(47.8844 83.2581)" fill="#FEFEFE"/>
<path d="M192.384 170.055C184.958 170.055 177.699 172.208 171.524 176.241C165.35 180.274 160.537 186.006 157.696 192.712C154.854 199.419 154.11 206.799 155.559 213.918C157.008 221.038 160.584 227.578 165.835 232.711C171.086 237.844 177.776 241.34 185.059 242.756C192.343 244.172 199.892 243.445 206.753 240.667C213.614 237.889 219.478 233.185 223.603 227.149C227.729 221.113 229.931 214.017 229.931 206.758C229.92 197.027 225.961 187.698 218.922 180.817C211.883 173.936 202.339 170.066 192.384 170.055ZM221.285 202.68H210.31C209.772 194.845 207.455 187.226 203.527 180.376C208.208 182.274 212.306 185.327 215.418 189.236C218.531 193.146 220.552 197.778 221.285 202.68ZM182.827 210.836H201.948C201.166 219.907 197.777 228.325 192.391 234.574C186.982 228.325 183.61 219.907 182.827 210.836ZM182.827 202.68C183.61 193.61 186.982 185.192 192.384 178.942C197.787 185.192 201.159 193.61 201.941 202.68H182.827ZM181.259 180.376C177.325 187.224 175.002 194.844 174.459 202.68H163.484C164.218 197.776 166.242 193.143 169.358 189.233C172.474 185.323 176.575 182.271 181.259 180.376ZM163.484 210.836H174.459C175.002 218.672 177.325 226.292 181.259 233.14C176.575 231.245 172.474 228.193 169.358 224.283C166.242 220.374 164.218 215.74 163.484 210.836ZM203.527 233.14C207.455 226.29 209.772 218.671 210.31 210.836H221.285C220.552 215.738 218.531 220.37 215.418 224.28C212.306 228.19 208.208 231.242 203.527 233.14Z" fill="url(#paint0_linear_125_234)"/>
<path d="M263.07 174.304L258.845 199.758H251.934L256.16 174.304H263.07ZM270.919 189.019L269.13 199.758H262.269L265.451 180.667H271.963L271.367 184.296H271.566C272.171 183.078 273.053 182.13 274.213 181.45C275.381 180.762 276.67 180.419 278.078 180.419C279.429 180.419 280.552 180.725 281.447 181.338C282.342 181.951 282.975 182.797 283.348 183.874C283.721 184.951 283.787 186.186 283.547 187.578L281.509 199.758H274.648L276.438 189.019C276.595 188.075 276.479 187.333 276.09 186.795C275.709 186.256 275.079 185.987 274.201 185.987C273.645 185.987 273.136 186.111 272.672 186.36C272.216 186.6 271.835 186.948 271.528 187.404C271.23 187.851 271.027 188.39 270.919 189.019ZM299.413 180.667L298.568 185.639H285.989L286.835 180.667H299.413ZM290.016 176.093H296.877L293.969 193.618C293.927 193.883 293.936 194.107 293.994 194.289C294.052 194.463 294.168 194.596 294.342 194.687C294.524 194.77 294.764 194.811 295.063 194.811C295.261 194.811 295.506 194.786 295.796 194.737C296.086 194.679 296.306 194.637 296.455 194.612L296.654 199.435C296.306 199.534 295.837 199.646 295.249 199.77C294.669 199.903 293.994 199.99 293.223 200.031C291.616 200.106 290.306 199.936 289.296 199.522C288.293 199.108 287.597 198.461 287.208 197.583C286.826 196.696 286.76 195.59 287.009 194.264L290.016 176.093ZM299.031 199.758L302.212 180.667H308.874L308.278 184.296H308.477C309.048 182.954 309.765 181.972 310.627 181.351C311.489 180.729 312.429 180.419 313.448 180.419C313.746 180.419 314.032 180.443 314.306 180.493C314.588 180.535 314.865 180.593 315.139 180.667L314.144 186.534C313.821 186.409 313.419 186.322 312.939 186.273C312.458 186.215 312.031 186.186 311.658 186.186C310.996 186.186 310.374 186.339 309.794 186.645C309.222 186.944 308.733 187.366 308.327 187.913C307.93 188.452 307.665 189.086 307.532 189.815L305.891 199.758H299.031ZM322.26 200.106C320.189 200.106 318.482 199.696 317.14 198.876C315.806 198.047 314.869 196.895 314.331 195.42C313.792 193.937 313.684 192.218 314.008 190.262C314.331 188.307 315.006 186.592 316.033 185.117C317.061 183.634 318.383 182.482 319.998 181.661C321.614 180.833 323.462 180.419 325.542 180.419C327.605 180.419 329.303 180.833 330.637 181.661C331.98 182.482 332.92 183.634 333.459 185.117C334.006 186.592 334.118 188.307 333.794 190.262C333.471 192.218 332.792 193.937 331.756 195.42C330.72 196.895 329.395 198.047 327.779 198.876C326.171 199.696 324.332 200.106 322.26 200.106ZM323.106 195.035C323.702 195.035 324.245 194.84 324.734 194.451C325.231 194.061 325.653 193.506 326.001 192.785C326.358 192.065 326.619 191.207 326.784 190.213C326.95 189.21 326.975 188.352 326.859 187.64C326.743 186.919 326.503 186.364 326.138 185.974C325.774 185.585 325.293 185.39 324.696 185.39C324.1 185.39 323.553 185.585 323.056 185.974C322.559 186.364 322.136 186.919 321.788 187.64C321.44 188.352 321.183 189.21 321.017 190.213C320.852 191.207 320.823 192.065 320.93 192.785C321.046 193.506 321.287 194.061 321.651 194.451C322.024 194.84 322.509 195.035 323.106 195.035ZM341.873 200.007C340.514 200.007 339.321 199.65 338.294 198.938C337.275 198.225 336.541 197.144 336.094 195.694C335.655 194.244 335.617 192.417 335.982 190.213C336.363 187.909 337.03 186.036 337.983 184.595C338.944 183.153 340.046 182.096 341.289 181.425C342.54 180.754 343.796 180.419 345.055 180.419C346 180.419 346.799 180.584 347.454 180.916C348.117 181.239 348.643 181.674 349.032 182.221C349.422 182.759 349.687 183.352 349.828 183.998H349.927L351.543 174.304H358.404L354.178 199.758H347.367L347.889 196.626H347.74C347.367 197.272 346.89 197.852 346.31 198.366C345.739 198.871 345.08 199.273 344.334 199.572C343.588 199.862 342.768 200.007 341.873 200.007ZM345.279 194.737C345.909 194.737 346.48 194.554 346.994 194.19C347.508 193.817 347.943 193.295 348.299 192.624C348.655 191.944 348.908 191.141 349.057 190.213C349.215 189.268 349.227 188.46 349.095 187.789C348.962 187.11 348.697 186.592 348.299 186.235C347.91 185.871 347.4 185.688 346.77 185.688C346.141 185.688 345.573 185.871 345.068 186.235C344.562 186.592 344.135 187.11 343.787 187.789C343.448 188.46 343.199 189.268 343.042 190.213C342.884 191.157 342.863 191.969 342.979 192.649C343.104 193.32 343.361 193.838 343.75 194.202C344.139 194.559 344.649 194.737 345.279 194.737ZM371.318 191.406L373.107 180.667H379.968L376.786 199.758H370.273L370.87 196.129H370.671C370.083 197.347 369.205 198.3 368.036 198.987C366.876 199.667 365.584 200.007 364.158 200.007C362.824 200.007 361.71 199.7 360.815 199.087C359.92 198.474 359.286 197.629 358.913 196.551C358.541 195.474 358.466 194.24 358.69 192.848L360.728 180.667H367.589L365.799 191.406C365.658 192.35 365.778 193.092 366.159 193.631C366.549 194.169 367.175 194.438 368.036 194.438C368.608 194.438 369.122 194.318 369.577 194.078C370.041 193.829 370.423 193.481 370.721 193.034C371.028 192.578 371.226 192.036 371.318 191.406ZM389.423 200.106C387.352 200.106 385.645 199.696 384.303 198.876C382.96 198.047 382.02 196.895 381.481 195.42C380.943 193.937 380.839 192.218 381.171 190.262C381.485 188.307 382.157 186.592 383.184 185.117C384.22 183.634 385.546 182.482 387.161 181.661C388.785 180.833 390.633 180.419 392.705 180.419C394.577 180.419 396.139 180.758 397.39 181.438C398.65 182.109 399.549 183.062 400.087 184.296C400.634 185.523 400.775 186.964 400.51 188.622H394.146C394.221 187.627 394.059 186.865 393.662 186.335C393.272 185.804 392.705 185.539 391.959 185.539C391.346 185.539 390.782 185.713 390.269 186.061C389.763 186.401 389.328 186.919 388.964 187.615C388.607 188.303 388.346 189.169 388.181 190.213C388.015 191.257 387.994 192.127 388.118 192.823C388.251 193.51 388.508 194.028 388.889 194.376C389.278 194.716 389.771 194.886 390.368 194.886C390.882 194.886 391.354 194.77 391.785 194.538C392.224 194.298 392.601 193.95 392.916 193.494C393.239 193.03 393.484 192.466 393.649 191.804H400.013C399.698 193.494 399.064 194.96 398.111 196.203C397.158 197.446 395.945 198.407 394.47 199.087C392.995 199.766 391.313 200.106 389.423 200.106ZM388.379 199.659H390.815L390.418 200.802C391.362 200.951 392.067 201.303 392.531 201.859C392.995 202.414 393.152 203.089 393.003 203.884C392.804 205.227 391.98 206.283 390.53 207.054C389.08 207.824 387.186 208.21 384.85 208.21L385.297 205.575C386.515 205.575 387.468 205.442 388.156 205.177C388.843 204.912 389.249 204.531 389.374 204.034C389.473 203.561 389.349 203.176 389.001 202.878C388.661 202.579 388.106 202.368 387.335 202.244L388.379 199.659ZM406.771 200.056C405.561 200.056 404.522 199.857 403.652 199.46C402.79 199.054 402.16 198.441 401.762 197.62C401.373 196.792 401.286 195.748 401.501 194.488C401.675 193.444 402.003 192.553 402.483 191.816C402.964 191.078 403.56 190.474 404.273 190.001C404.986 189.529 405.785 189.169 406.672 188.92C407.567 188.663 408.511 188.497 409.506 188.423C410.583 188.34 411.457 188.236 412.128 188.112C412.799 187.988 413.301 187.818 413.632 187.603C413.963 187.387 414.162 187.097 414.229 186.732V186.683C414.303 186.186 414.171 185.804 413.831 185.539C413.499 185.274 413.035 185.142 412.439 185.142C411.792 185.142 411.233 185.282 410.761 185.564C410.297 185.846 409.978 186.285 409.804 186.882H403.49C403.755 185.722 404.298 184.653 405.118 183.675C405.947 182.689 407.045 181.902 408.412 181.313C409.787 180.717 411.428 180.419 413.334 180.419C414.693 180.419 415.886 180.58 416.913 180.903C417.941 181.218 418.79 181.661 419.461 182.233C420.141 182.797 420.617 183.46 420.89 184.222C421.172 184.976 421.239 185.796 421.089 186.683L418.902 199.758H412.489L412.936 197.073H412.787C412.29 197.786 411.73 198.362 411.109 198.801C410.496 199.24 409.825 199.559 409.095 199.758C408.375 199.957 407.6 200.056 406.771 200.056ZM409.754 195.731C410.268 195.731 410.773 195.623 411.27 195.408C411.768 195.192 412.194 194.882 412.551 194.476C412.907 194.07 413.135 193.577 413.234 192.997L413.483 191.406C413.301 191.48 413.098 191.551 412.874 191.617C412.658 191.675 412.431 191.733 412.19 191.791C411.958 191.849 411.71 191.903 411.444 191.953C411.188 192.002 410.922 192.052 410.649 192.102C410.102 192.185 409.642 192.321 409.269 192.512C408.897 192.694 408.607 192.922 408.399 193.196C408.192 193.461 408.064 193.759 408.014 194.09C407.94 194.612 408.06 195.018 408.375 195.308C408.698 195.59 409.158 195.731 409.754 195.731ZM410.5 178.281H407.119C407.417 176.491 408.043 175.157 408.996 174.279C409.957 173.4 411.022 172.961 412.19 172.961C412.837 172.961 413.371 173.065 413.794 173.272C414.216 173.479 414.577 173.715 414.875 173.98C415.173 174.246 415.447 174.482 415.695 174.689C415.944 174.896 416.217 175 416.515 175C416.988 175 417.352 174.826 417.609 174.478C417.874 174.13 418.057 173.657 418.156 173.061H421.487C421.164 174.826 420.522 176.155 419.561 177.05C418.599 177.945 417.535 178.405 416.366 178.43C415.72 178.43 415.19 178.326 414.775 178.119C414.369 177.912 414.026 177.676 413.744 177.411C413.462 177.146 413.197 176.909 412.948 176.702C412.7 176.495 412.414 176.392 412.091 176.392C411.693 176.392 411.353 176.553 411.072 176.876C410.79 177.191 410.599 177.659 410.5 178.281ZM431.328 200.106C429.256 200.106 427.549 199.696 426.207 198.876C424.873 198.047 423.937 196.895 423.398 195.42C422.859 193.937 422.752 192.218 423.075 190.262C423.398 188.307 424.073 186.592 425.101 185.117C426.128 183.634 427.45 182.482 429.066 181.661C430.681 180.833 432.529 180.419 434.609 180.419C436.672 180.419 438.371 180.833 439.705 181.661C441.047 182.482 441.988 183.634 442.526 185.117C443.073 186.592 443.185 188.307 442.862 190.262C442.539 192.218 441.859 193.937 440.823 195.42C439.788 196.895 438.462 198.047 436.846 198.876C435.239 199.696 433.399 200.106 431.328 200.106ZM432.173 195.035C432.769 195.035 433.312 194.84 433.801 194.451C434.298 194.061 434.721 193.506 435.069 192.785C435.425 192.065 435.686 191.207 435.852 190.213C436.018 189.21 436.042 188.352 435.926 187.64C435.81 186.919 435.57 186.364 435.206 185.974C434.841 185.585 434.36 185.39 433.764 185.39C433.167 185.39 432.62 185.585 432.123 185.974C431.626 186.364 431.203 186.919 430.855 187.64C430.507 188.352 430.251 189.21 430.085 190.213C429.919 191.207 429.89 192.065 429.998 192.785C430.114 193.506 430.354 194.061 430.719 194.451C431.092 194.84 431.576 195.035 432.173 195.035ZM257.303 240.056C256.094 240.056 255.054 239.857 254.184 239.46C253.322 239.054 252.692 238.441 252.295 237.62C251.905 236.792 251.818 235.748 252.034 234.488C252.208 233.444 252.535 232.553 253.015 231.816C253.496 231.078 254.093 230.474 254.805 230.001C255.518 229.529 256.317 229.169 257.204 228.92C258.099 228.663 259.043 228.497 260.038 228.423C261.115 228.34 261.989 228.236 262.66 228.112C263.331 227.988 263.833 227.818 264.164 227.603C264.496 227.387 264.695 227.097 264.761 226.732V226.683C264.835 226.186 264.703 225.804 264.363 225.539C264.032 225.274 263.568 225.142 262.971 225.142C262.325 225.142 261.765 225.282 261.293 225.564C260.829 225.846 260.51 226.285 260.336 226.882H254.022C254.287 225.722 254.83 224.653 255.65 223.675C256.479 222.689 257.577 221.902 258.944 221.313C260.32 220.717 261.96 220.419 263.866 220.419C265.225 220.419 266.418 220.58 267.445 220.903C268.473 221.218 269.322 221.661 269.993 222.233C270.673 222.797 271.149 223.46 271.423 224.222C271.704 224.976 271.771 225.796 271.622 226.683L269.434 239.758H263.021L263.468 237.073H263.319C262.822 237.786 262.263 238.362 261.641 238.801C261.028 239.24 260.357 239.559 259.628 239.758C258.907 239.957 258.132 240.056 257.303 240.056ZM260.286 235.731C260.8 235.731 261.306 235.623 261.803 235.408C262.3 235.192 262.727 234.882 263.083 234.476C263.439 234.07 263.667 233.577 263.766 232.997L264.015 231.406C263.833 231.48 263.63 231.551 263.406 231.617C263.191 231.675 262.963 231.733 262.722 231.791C262.49 231.849 262.242 231.903 261.977 231.953C261.72 232.002 261.455 232.052 261.181 232.102C260.634 232.185 260.174 232.321 259.802 232.512C259.429 232.694 259.139 232.922 258.932 233.196C258.724 233.461 258.596 233.759 258.546 234.09C258.472 234.612 258.592 235.018 258.907 235.308C259.23 235.59 259.69 235.731 260.286 235.731ZM290.722 214.304L286.496 239.758H279.585L283.811 214.304H290.722ZM298.571 229.019L296.781 239.758H289.92L293.102 220.667H299.615L299.018 224.296H299.217C299.822 223.078 300.704 222.13 301.864 221.45C303.033 220.762 304.321 220.419 305.73 220.419C307.08 220.419 308.203 220.725 309.098 221.338C309.993 221.951 310.627 222.797 311 223.874C311.373 224.951 311.439 226.186 311.199 227.578L309.16 239.758H302.299L304.089 229.019C304.247 228.075 304.131 227.333 303.741 226.795C303.36 226.256 302.73 225.987 301.852 225.987C301.297 225.987 300.787 226.111 300.323 226.36C299.867 226.6 299.486 226.948 299.18 227.404C298.881 227.851 298.678 228.39 298.571 229.019ZM327.064 220.667L326.219 225.639H313.641L314.486 220.667H327.064ZM317.668 216.093H324.529L321.62 233.618C321.579 233.883 321.587 234.107 321.645 234.289C321.703 234.463 321.819 234.596 321.993 234.687C322.175 234.77 322.416 234.811 322.714 234.811C322.913 234.811 323.157 234.786 323.447 234.737C323.737 234.679 323.957 234.637 324.106 234.612L324.305 239.435C323.957 239.534 323.489 239.646 322.9 239.77C322.32 239.903 321.645 239.99 320.875 240.031C319.267 240.106 317.958 239.936 316.947 239.522C315.944 239.108 315.248 238.461 314.859 237.583C314.478 236.696 314.411 235.59 314.66 234.264L317.668 216.093ZM335.575 240.106C333.537 240.106 331.846 239.717 330.504 238.938C329.162 238.151 328.217 237.024 327.67 235.557C327.123 234.082 327.024 232.317 327.372 230.262C327.703 228.29 328.387 226.567 329.423 225.092C330.467 223.617 331.78 222.469 333.363 221.649C334.953 220.829 336.735 220.419 338.707 220.419C340.149 220.419 341.412 220.642 342.498 221.09C343.592 221.537 344.482 222.188 345.17 223.041C345.858 223.895 346.322 224.926 346.562 226.136C346.811 227.337 346.811 228.696 346.562 230.213L346.314 231.804H329.261L329.858 228.025H340.596C340.679 227.478 340.625 226.998 340.435 226.583C340.252 226.161 339.958 225.833 339.552 225.601C339.154 225.361 338.674 225.241 338.11 225.241C337.547 225.241 337.017 225.361 336.519 225.601C336.031 225.842 335.612 226.177 335.264 226.608C334.924 227.039 334.697 227.545 334.581 228.125L333.835 232.102C333.735 232.715 333.773 233.262 333.947 233.742C334.121 234.223 334.423 234.6 334.854 234.873C335.285 235.147 335.84 235.284 336.519 235.284C336.984 235.284 337.423 235.221 337.837 235.097C338.26 234.965 338.632 234.774 338.956 234.525C339.287 234.269 339.552 233.958 339.751 233.593H346.015C345.568 234.919 344.859 236.071 343.89 237.049C342.929 238.018 341.744 238.772 340.335 239.311C338.935 239.841 337.348 240.106 335.575 240.106ZM347.771 239.758L350.953 220.667H357.615L357.018 224.296H357.217C357.789 222.954 358.505 221.972 359.367 221.351C360.229 220.729 361.169 220.419 362.188 220.419C362.487 220.419 362.773 220.443 363.046 220.493C363.328 220.535 363.605 220.593 363.879 220.667L362.884 226.534C362.561 226.409 362.159 226.322 361.679 226.273C361.198 226.215 360.772 226.186 360.399 226.186C359.736 226.186 359.114 226.339 358.534 226.645C357.963 226.944 357.474 227.366 357.068 227.913C356.67 228.452 356.405 229.086 356.272 229.815L354.632 239.758H347.771ZM371.647 229.019L369.857 239.758H362.996L366.178 220.667H372.691L372.094 224.296H372.293C372.898 223.078 373.781 222.13 374.941 221.45C376.109 220.762 377.397 220.419 378.806 220.419C380.157 220.419 381.279 220.725 382.174 221.338C383.069 221.951 383.703 222.797 384.076 223.874C384.449 224.951 384.515 226.186 384.275 227.578L382.236 239.758H375.376L377.165 229.019C377.323 228.075 377.207 227.333 376.817 226.795C376.436 226.256 375.806 225.987 374.928 225.987C374.373 225.987 373.863 226.111 373.399 226.36C372.944 226.6 372.562 226.948 372.256 227.404C371.958 227.851 371.755 228.39 371.647 229.019ZM394.672 240.106C392.633 240.106 390.943 239.717 389.601 238.938C388.258 238.151 387.314 237.024 386.767 235.557C386.22 234.082 386.12 232.317 386.468 230.262C386.8 228.29 387.483 226.567 388.519 225.092C389.563 223.617 390.877 222.469 392.459 221.649C394.05 220.829 395.832 220.419 397.804 220.419C399.245 220.419 400.509 220.642 401.595 221.09C402.688 221.537 403.579 222.188 404.267 223.041C404.954 223.895 405.418 224.926 405.659 226.136C405.907 227.337 405.907 228.696 405.659 230.213L405.41 231.804H388.358L388.954 228.025H399.693C399.776 227.478 399.722 226.998 399.531 226.583C399.349 226.161 399.055 225.833 398.649 225.601C398.251 225.361 397.771 225.241 397.207 225.241C396.644 225.241 396.113 225.361 395.616 225.601C395.127 225.842 394.709 226.177 394.361 226.608C394.021 227.039 393.793 227.545 393.677 228.125L392.932 232.102C392.832 232.715 392.869 233.262 393.043 233.742C393.217 234.223 393.52 234.6 393.951 234.873C394.382 235.147 394.937 235.284 395.616 235.284C396.08 235.284 396.519 235.221 396.934 235.097C397.356 234.965 397.729 234.774 398.052 234.525C398.384 234.269 398.649 233.958 398.848 233.593H405.112C404.664 234.919 403.956 236.071 402.987 237.049C402.025 238.018 400.84 238.772 399.432 239.311C398.032 239.841 396.445 240.106 394.672 240.106ZM421.434 220.667L420.589 225.639H408.011L408.856 220.667H421.434ZM412.038 216.093H418.899L415.99 233.618C415.949 233.883 415.957 234.107 416.015 234.289C416.073 234.463 416.189 234.596 416.363 234.687C416.546 234.77 416.786 234.811 417.084 234.811C417.283 234.811 417.527 234.786 417.817 234.737C418.107 234.679 418.327 234.637 418.476 234.612L418.675 239.435C418.327 239.534 417.859 239.646 417.271 239.77C416.691 239.903 416.015 239.99 415.245 240.031C413.637 240.106 412.328 239.936 411.317 239.522C410.314 239.108 409.618 238.461 409.229 237.583C408.848 236.696 408.782 235.59 409.03 234.264L412.038 216.093Z" fill="#1B1B1B"/>
</g>
<circle cx="517.269" cy="316.781" r="5" stroke="url(#paint1_linear_125_234)" stroke-width="3"/>
<path d="M518.829 339.635L518.829 339.635C518.968 339.774 519.079 339.94 519.154 340.122C519.23 340.304 519.268 340.499 519.268 340.696C519.268 340.893 519.23 341.088 519.154 341.27C519.079 341.452 518.968 341.617 518.829 341.756L518.829 341.756L518.244 342.341L518.244 342.341C518.105 342.481 517.939 342.591 517.757 342.667C517.575 342.742 517.38 342.781 517.183 342.781C516.986 342.781 516.791 342.742 516.609 342.667C516.427 342.591 516.262 342.481 516.122 342.341L516.122 342.341L509.216 335.436L508.697 334.917L508.404 335.591L505.669 341.883L505.668 341.885C505.553 342.152 505.363 342.379 505.12 342.539C504.878 342.698 504.593 342.782 504.303 342.781H504.301H504.215C503.916 342.767 503.628 342.662 503.39 342.48C503.149 342.296 502.971 342.043 502.879 341.754L502.878 341.751L496.344 321.741L496.344 321.741C496.258 321.478 496.247 321.197 496.311 320.929C496.375 320.66 496.512 320.415 496.707 320.22C496.902 320.025 497.148 319.887 497.416 319.823C497.685 319.759 497.966 319.771 498.228 319.856L498.229 319.857L518.235 326.389C518.236 326.389 518.236 326.39 518.237 326.39C518.523 326.486 518.773 326.666 518.956 326.907C519.138 327.148 519.243 327.439 519.258 327.741C519.272 328.043 519.194 328.342 519.036 328.6C518.877 328.856 518.645 329.06 518.369 329.182C518.368 329.182 518.368 329.183 518.367 329.183L512.078 331.916L511.405 332.209L511.924 332.729L518.829 339.635Z" fill="black" stroke="white"/>
<defs>
<filter id="filter0_d_125_234" x="25.8844" y="61.2581" width="557" height="307" filterUnits="userSpaceOnUse" color-interpolation-filters="sRGB">
<feFlood flood-opacity="0" result="BackgroundImageFix"/>
<feColorMatrix in="SourceAlpha" type="matrix" values="0 0 0 0 0 0 0 0 0 0 0 0 0 0 0 0 0 0 127 0" result="hardAlpha"/>
<feOffset dx="8" dy="8"/>
<feGaussianBlur stdDeviation="15"/>
<feComposite in2="hardAlpha" operator="out"/>
<feColorMatrix type="matrix" values="0 0 0 0 0 0 0 0 0 0 0 0 0 0 0 0 0 0 0.25 0"/>
<feBlend mode="normal" in2="BackgroundImageFix" result="effect1_dropShadow_125_234"/>
<feBlend mode="normal" in="SourceGraphic" in2="effect1_dropShadow_125_234" result="shape"/>
</filter>
<linearGradient id="paint0_linear_125_234" x1="155.557" y1="170.758" x2="227.538" y2="244.394" gradientUnits="userSpaceOnUse">
<stop stop-color="#319BD0"/>
<stop offset="1" stop-color="#276B98"/>
</linearGradient>
<linearGradient id="paint1_linear_125_234" x1="517.269" y1="310.281" x2="517.269" y2="323.281" gradientUnits="userSpaceOnUse">
<stop stop-color="#E25DC9"/>
<stop offset="1" stop-color="#8F3DC1"/>
</linearGradient>
</defs>
</svg>
