<svg width="122" height="56" viewBox="0 0 122 56" fill="none" xmlns="http://www.w3.org/2000/svg">
  <path
    d="M35.7115 28.1841C35.7106 36.2363 33.7297 44.1647 29.943 51.271C29.7833 51.5799 29.5637 51.854 29.2971 52.0773C29.0305 52.3007 28.7221 52.4688 28.39 52.572C28.0578 52.6751 27.7085 52.7113 27.3623 52.6783C27.016 52.6453 26.6798 52.5438 26.3732 52.3797C26.0665 52.2156 25.7955 51.9923 25.5759 51.7226C25.3563 51.4529 25.1924 51.1422 25.0939 50.8087C24.9954 50.4751 24.9641 50.1253 25.002 49.7796C25.0398 49.4338 25.146 49.0991 25.3143 48.7947C28.6945 42.4506 30.4622 35.3725 30.4615 28.1841C30.4615 27.72 30.2771 27.2748 29.9489 26.9466C29.6207 26.6185 29.1756 26.4341 28.7115 26.4341C28.2474 26.4341 27.8022 26.6185 27.474 26.9466C27.1459 27.2748 26.9615 27.72 26.9615 28.1841C26.9615 28.8803 26.6849 29.548 26.1926 30.0402C25.7004 30.5325 25.0327 30.8091 24.3365 30.8091C23.6403 30.8091 22.9726 30.5325 22.4803 30.0402C21.988 29.548 21.7115 28.8803 21.7115 28.1841C21.7115 26.3276 22.449 24.5471 23.7617 23.2343C25.0745 21.9216 26.855 21.1841 28.7115 21.1841C30.568 21.1841 32.3485 21.9216 33.6612 23.2343C34.974 24.5471 35.7115 26.3276 35.7115 28.1841ZM28.7115 12.4341C28.0153 12.4341 27.3476 12.7106 26.8553 13.2029C26.363 13.6952 26.0865 14.3629 26.0865 15.0591C26.0865 15.7553 26.363 16.423 26.8553 16.9152C27.3476 17.4075 28.0153 17.6841 28.7115 17.6841C31.4954 17.687 34.1644 18.7942 36.1329 20.7627C38.1014 22.7312 39.2086 25.4002 39.2115 28.1841C39.2115 29.851 39.1327 31.5353 38.9774 33.1869C38.9433 33.5309 38.9775 33.8782 39.078 34.209C39.1785 34.5397 39.3434 34.8474 39.5631 35.1142C39.7828 35.3811 40.0531 35.602 40.3584 35.7641C40.6637 35.9262 40.998 36.0265 41.3421 36.0591C41.4252 36.0591 41.5084 36.0591 41.5915 36.0591C42.2443 36.0582 42.8733 35.8141 43.3558 35.3744C43.8383 34.9348 44.1397 34.3311 44.2012 33.6813C44.374 31.8656 44.4593 30.015 44.4593 28.1841C44.4547 24.0087 42.7941 20.0057 39.8419 17.053C36.8897 14.1004 32.8868 12.4393 28.7115 12.4341ZM21.7115 20.3594C22.2118 19.8905 22.5088 19.2444 22.5389 18.5593C22.569 17.8743 22.3298 17.2046 21.8726 16.6936C21.4153 16.1826 20.7762 15.8708 20.092 15.825C19.4079 15.7791 18.7329 16.0028 18.2115 16.4481C16.5613 17.926 15.2409 19.7348 14.3364 21.7569C13.4318 23.779 12.9633 25.9689 12.9615 28.1841C12.9626 32.6522 11.8242 37.0468 9.65395 40.9525C9.31485 41.5617 9.23162 42.2806 9.42259 42.9511C9.61355 43.6217 10.0631 44.1889 10.6723 44.528C11.2814 44.8671 12.0004 44.9503 12.6709 44.7594C13.3414 44.5684 13.9086 44.1189 14.2477 43.5097C16.8507 38.8213 18.215 33.5466 18.2115 28.1841C18.2128 26.7072 18.5251 25.2472 19.1282 23.899C19.7312 22.5508 20.6114 21.3448 21.7115 20.3594ZM23.9209 34.3813C23.5853 34.3012 23.2373 34.2881 22.8967 34.3426C22.5561 34.3972 22.2295 34.5183 21.9358 34.6991C21.642 34.8799 21.3868 35.1169 21.1846 35.3964C20.9825 35.6759 20.8374 35.9925 20.7577 36.3281C19.9156 39.868 18.5219 43.2533 16.6277 46.36C16.2657 46.9547 16.1547 47.6688 16.3193 48.3453C16.4838 49.0218 16.9103 49.6052 17.5049 49.9672C18.0996 50.3292 18.8137 50.4402 19.4902 50.2757C20.1667 50.1112 20.7501 49.6847 21.1121 49.09C23.2919 45.5142 24.8967 41.6182 25.8677 37.5444C25.9478 37.2089 25.9609 36.8608 25.9064 36.5202C25.8518 36.1796 25.7307 35.8531 25.5499 35.5593C25.3691 35.2656 25.1321 35.0103 24.8526 34.8082C24.5731 34.606 24.2565 34.461 23.9209 34.3813ZM40.7055 39.6466C40.3717 39.5596 40.0241 39.5394 39.6824 39.5869C39.3408 39.6344 39.0118 39.7488 38.7144 39.9235C38.417 40.0982 38.1569 40.3298 37.9491 40.6051C37.7412 40.8804 37.5896 41.1939 37.503 41.5278C37.0183 43.3715 36.4341 45.1876 35.753 46.9681C35.5045 47.618 35.5242 48.3398 35.8076 48.9752C36.091 49.6105 36.6151 50.1074 37.2646 50.3566C37.5638 50.473 37.8821 50.5323 38.203 50.5316C38.7345 50.5317 39.2534 50.3706 39.6913 50.0694C40.1291 49.7683 40.4653 49.3413 40.6552 48.845C41.406 46.8862 42.0479 44.8875 42.578 42.8578C42.6664 42.524 42.6881 42.176 42.6418 41.8339C42.5955 41.4917 42.4821 41.162 42.3081 40.8637C42.1342 40.5654 41.9031 40.3043 41.6281 40.0955C41.3531 39.8866 41.0396 39.7341 40.7055 39.6466ZM28.7115 3.68408C22.237 3.69089 16.0278 6.25753 11.4381 10.8242C6.84845 15.3909 4.25071 21.5872 4.21145 28.0616C4.21145 28.1031 4.21145 28.1447 4.21145 28.1863C4.21185 30.2637 3.84146 32.3246 3.1177 34.2719C2.99499 34.5957 2.93755 34.9405 2.94868 35.2866C2.95982 35.6327 3.03931 35.9731 3.18257 36.2883C3.32584 36.6035 3.53005 36.8873 3.78344 37.1233C4.03684 37.3592 4.33441 37.5427 4.65902 37.6632C4.98364 37.7836 5.32888 37.8387 5.67486 37.8252C6.02084 37.8117 6.36073 37.7298 6.67495 37.5844C6.98917 37.4389 7.27151 37.2328 7.50571 36.9777C7.73992 36.7227 7.92135 36.4239 8.03958 36.0985C8.96679 33.6062 9.44809 30.9701 9.46145 28.311C9.46145 28.2694 9.46145 28.2278 9.46145 28.1863C9.44695 23.0809 11.4612 18.1788 15.061 14.5584C18.6608 10.9381 23.5514 8.89609 28.6568 8.88158C33.7622 8.86708 38.6643 10.8813 42.2846 14.4811C45.9049 18.0809 47.947 22.9715 47.9615 28.0769C47.9615 28.1119 47.9615 28.1491 47.9615 28.1863C47.9628 32.7024 47.4684 37.2049 46.4871 41.6131C46.3351 42.2925 46.4592 43.0044 46.8321 43.5923C47.205 44.1801 47.7962 44.5958 48.4755 44.7478C48.6659 44.79 48.8603 44.8105 49.0552 44.8091C49.6514 44.8086 50.2297 44.6051 50.6949 44.2322C51.1601 43.8592 51.4844 43.339 51.6146 42.7572C52.6704 38.0119 53.2058 33.1657 53.2115 28.3044C53.2115 28.265 53.2115 28.2256 53.2115 28.1863C53.2045 21.6904 50.6211 15.4625 46.0281 10.8691C41.435 6.27557 35.2074 3.69161 28.7115 3.68408Z"
    fill="#E7005E" />
  <path d="M71 19V37" stroke="#E7005E" stroke-width="6" stroke-linecap="round" />
  <path
    d="M97.946 28.0907C97.946 30.47 97.495 32.4941 96.593 34.1632C95.6982 35.8322 94.4766 37.107 92.9283 37.9877C91.3871 38.8613 89.6541 39.2981 87.7294 39.2981C85.7905 39.2981 84.0504 38.8578 82.5092 37.9771C80.968 37.0964 79.75 35.8215 78.8551 34.1525C77.9602 32.4835 77.5128 30.4629 77.5128 28.0907C77.5128 25.7114 77.9602 23.6873 78.8551 22.0183C79.75 20.3492 80.968 19.0779 82.5092 18.2043C84.0504 17.3237 85.7905 16.8833 87.7294 16.8833C89.6541 16.8833 91.3871 17.3237 92.9283 18.2043C94.4766 19.0779 95.6982 20.3492 96.593 22.0183C97.495 23.6873 97.946 25.7114 97.946 28.0907ZM93.2692 28.0907C93.2692 26.5495 93.0384 25.2498 92.5767 24.1916C92.1222 23.1333 91.4794 22.3308 90.6484 21.7839C89.8175 21.237 88.8445 20.9636 87.7294 20.9636C86.6143 20.9636 85.6413 21.237 84.8104 21.7839C83.9794 22.3308 83.3331 23.1333 82.8714 24.1916C82.4169 25.2498 82.1896 26.5495 82.1896 28.0907C82.1896 29.6319 82.4169 30.9316 82.8714 31.9899C83.3331 33.0481 83.9794 33.8507 84.8104 34.3975C85.6413 34.9444 86.6143 35.2178 87.7294 35.2178C88.8445 35.2178 89.8175 34.9444 90.6484 34.3975C91.4794 33.8507 92.1222 33.0481 92.5767 31.9899C93.0384 30.9316 93.2692 29.6319 93.2692 28.0907ZM119.612 17.1816V38.9998H115.628L106.136 25.2676H105.976V38.9998H101.363V17.1816H105.411L114.829 30.9032H115.021V17.1816H119.612Z"
    fill="white" />
</svg>