<svg width="584" height="220" viewBox="0 0 584 220" fill="none" xmlns="http://www.w3.org/2000/svg">
    <g filter="url(#filter0_d_132_300)">
        <rect x="4.71722" y="140.125" width="346" height="71" rx="10" fill="#323161" />
        <path
            d="M35.9502 170.125V159.943H39.3905C40.1893 159.943 40.8422 160.087 41.3493 160.375C41.8597 160.66 42.2376 161.046 42.4828 161.534C42.7281 162.021 42.8507 162.564 42.8507 163.164C42.8507 163.764 42.7281 164.309 42.4828 164.8C42.2409 165.29 41.8664 165.682 41.3593 165.973C40.8522 166.262 40.2025 166.406 39.4104 166.406H36.9445V165.312H39.3706C39.9175 165.312 40.3567 165.218 40.6881 165.029C41.0195 164.84 41.2598 164.585 41.409 164.263C41.5614 163.938 41.6377 163.572 41.6377 163.164C41.6377 162.757 41.5614 162.392 41.409 162.071C41.2598 161.749 41.0179 161.497 40.6831 161.315C40.3484 161.129 39.9043 161.036 39.3507 161.036H37.1831V170.125H35.9502ZM44.6778 170.125V162.488H45.8113V163.642H45.8909C46.0301 163.264 46.282 162.957 46.6466 162.722C47.0111 162.486 47.4221 162.369 47.8795 162.369C47.9657 162.369 48.0734 162.37 48.2027 162.374C48.3319 162.377 48.4297 162.382 48.496 162.389V163.582C48.4562 163.572 48.3651 163.557 48.2226 163.537C48.0833 163.514 47.9359 163.502 47.7801 163.502C47.4089 163.502 47.0774 163.58 46.7858 163.736C46.4974 163.888 46.2687 164.101 46.0997 164.372C45.934 164.641 45.8511 164.947 45.8511 165.292V170.125H44.6778ZM52.7566 170.284C52.0672 170.284 51.4624 170.12 50.942 169.791C50.425 169.463 50.0206 169.004 49.7289 168.414C49.4406 167.824 49.2964 167.135 49.2964 166.346C49.2964 165.551 49.4406 164.856 49.7289 164.263C50.0206 163.67 50.425 163.209 50.942 162.881C51.4624 162.553 52.0672 162.389 52.7566 162.389C53.446 162.389 54.0493 162.553 54.5663 162.881C55.0867 163.209 55.491 163.67 55.7794 164.263C56.071 164.856 56.2169 165.551 56.2169 166.346C56.2169 167.135 56.071 167.824 55.7794 168.414C55.491 169.004 55.0867 169.463 54.5663 169.791C54.0493 170.12 53.446 170.284 52.7566 170.284ZM52.7566 169.23C53.2803 169.23 53.7112 169.095 54.0493 168.827C54.3873 168.558 54.6376 168.205 54.8 167.768C54.9624 167.33 55.0436 166.857 55.0436 166.346C55.0436 165.836 54.9624 165.36 54.8 164.919C54.6376 164.478 54.3873 164.122 54.0493 163.85C53.7112 163.579 53.2803 163.443 52.7566 163.443C52.233 163.443 51.8021 163.579 51.464 163.85C51.126 164.122 50.8757 164.478 50.7133 164.919C50.5509 165.36 50.4697 165.836 50.4697 166.346C50.4697 166.857 50.5509 167.33 50.7133 167.768C50.8757 168.205 51.126 168.558 51.464 168.827C51.8021 169.095 52.233 169.23 52.7566 169.23ZM61.0903 173.147C60.5235 173.147 60.0363 173.074 59.6286 172.928C59.221 172.786 58.8812 172.597 58.6094 172.362C58.341 172.13 58.1272 171.881 57.9681 171.616L58.9028 170.96C59.0088 171.099 59.1431 171.258 59.3055 171.437C59.4679 171.619 59.6899 171.777 59.9717 171.909C60.2567 172.045 60.6296 172.113 61.0903 172.113C61.7067 172.113 62.2155 171.964 62.6165 171.666C63.0176 171.367 63.2181 170.9 63.2181 170.264V168.713H63.1187C63.0325 168.852 62.9099 169.024 62.7508 169.23C62.595 169.432 62.3696 169.612 62.0746 169.772C61.783 169.927 61.3886 170.005 60.8914 170.005C60.2749 170.005 59.7214 169.859 59.2309 169.568C58.7437 169.276 58.3576 168.852 58.0725 168.295C57.7908 167.738 57.6499 167.062 57.6499 166.267C57.6499 165.484 57.7875 164.803 58.0626 164.223C58.3377 163.64 58.7205 163.189 59.211 162.871C59.7015 162.549 60.2683 162.389 60.9113 162.389C61.4085 162.389 61.8029 162.472 62.0945 162.637C62.3895 162.8 62.6149 162.985 62.7707 163.194C62.9298 163.4 63.0524 163.569 63.1386 163.701H63.2579V162.488H64.3914V170.343C64.3914 171 64.2423 171.533 63.944 171.944C63.649 172.358 63.2513 172.662 62.7508 172.854C62.2536 173.049 61.7001 173.147 61.0903 173.147ZM61.0505 168.951C61.5211 168.951 61.9189 168.843 62.2437 168.628C62.5685 168.413 62.8154 168.103 62.9844 167.698C63.1535 167.294 63.238 166.81 63.238 166.247C63.238 165.696 63.1551 165.211 62.9894 164.79C62.8237 164.369 62.5784 164.039 62.2536 163.801C61.9288 163.562 61.5278 163.443 61.0505 163.443C60.5533 163.443 60.139 163.569 59.8076 163.821C59.4795 164.072 59.2326 164.41 59.0668 164.835C58.9044 165.259 58.8232 165.73 58.8232 166.247C58.8232 166.777 58.9061 167.246 59.0718 167.654C59.2408 168.058 59.4894 168.376 59.8175 168.608C60.149 168.837 60.56 168.951 61.0505 168.951ZM66.5391 170.125V162.488H67.6727V163.642H67.7522C67.8914 163.264 68.1433 162.957 68.5079 162.722C68.8725 162.486 69.2835 162.369 69.7408 162.369C69.827 162.369 69.9347 162.37 70.064 162.374C70.1933 162.377 70.291 162.382 70.3573 162.389V163.582C70.3175 163.572 70.2264 163.557 70.0839 163.537C69.9447 163.514 69.7972 163.502 69.6414 163.502C69.2702 163.502 68.9388 163.58 68.6471 163.736C68.3587 163.888 68.13 164.101 67.961 164.372C67.7953 164.641 67.7124 164.947 67.7124 165.292V170.125H66.5391ZM74.7174 170.284C73.9816 170.284 73.3469 170.121 72.8133 169.796C72.283 169.468 71.8737 169.011 71.5853 168.424C71.3003 167.834 71.1577 167.148 71.1577 166.366C71.1577 165.584 71.3003 164.894 71.5853 164.298C71.8737 163.698 72.2747 163.231 72.7884 162.896C73.3055 162.558 73.9087 162.389 74.5981 162.389C74.9958 162.389 75.3886 162.455 75.7764 162.588C76.1641 162.72 76.5171 162.936 76.8353 163.234C77.1535 163.529 77.407 163.92 77.596 164.407C77.7849 164.894 77.8793 165.494 77.8793 166.207V166.704H71.993V165.69H76.6862C76.6862 165.259 76.6 164.875 76.4276 164.536C76.2586 164.198 76.0166 163.932 75.7018 163.736C75.3902 163.54 75.0223 163.443 74.5981 163.443C74.1308 163.443 73.7264 163.559 73.385 163.791C73.0469 164.019 72.7868 164.318 72.6045 164.686C72.4222 165.053 72.331 165.448 72.331 165.869V166.545C72.331 167.122 72.4305 167.611 72.6293 168.012C72.8315 168.409 73.1116 168.713 73.4695 168.921C73.8275 169.127 74.2434 169.23 74.7174 169.23C75.0256 169.23 75.304 169.187 75.5526 169.1C75.8045 169.011 76.0216 168.878 76.2039 168.703C76.3862 168.524 76.5271 168.302 76.6265 168.036L77.76 168.355C77.6407 168.739 77.4402 169.077 77.1585 169.369C76.8767 169.657 76.5287 169.883 76.1144 170.045C75.7001 170.204 75.2344 170.284 74.7174 170.284ZM85.0732 164.198L84.0192 164.497C83.953 164.321 83.8552 164.15 83.7259 163.985C83.6 163.816 83.4276 163.676 83.2089 163.567C82.9901 163.458 82.7101 163.403 82.3687 163.403C81.9014 163.403 81.5119 163.511 81.2004 163.726C80.8921 163.938 80.738 164.208 80.738 164.536C80.738 164.828 80.8441 165.058 81.0562 165.227C81.2683 165.397 81.5997 165.537 82.0505 165.65L83.184 165.928C83.8668 166.094 84.3755 166.348 84.7103 166.689C85.0451 167.027 85.2124 167.463 85.2124 167.997C85.2124 168.434 85.0865 168.825 84.8346 169.17C84.586 169.515 84.238 169.786 83.7906 169.985C83.3431 170.184 82.8228 170.284 82.2295 170.284C81.4506 170.284 80.8059 170.115 80.2955 169.777C79.7851 169.438 79.462 168.945 79.3261 168.295L80.4397 168.017C80.5458 168.428 80.7463 168.736 81.0413 168.941C81.3396 169.147 81.729 169.25 82.2096 169.25C82.7565 169.25 83.1906 169.134 83.5121 168.902C83.837 168.666 83.9994 168.384 83.9994 168.056C83.9994 167.791 83.9066 167.569 83.721 167.39C83.5353 167.208 83.2503 167.072 82.8658 166.982L81.5931 166.684C80.8938 166.518 80.38 166.262 80.0519 165.914C79.7271 165.562 79.5647 165.123 79.5647 164.596C79.5647 164.165 79.6857 163.784 79.9276 163.453C80.1729 163.121 80.506 162.861 80.9269 162.672C81.3512 162.483 81.8317 162.389 82.3687 162.389C83.1244 162.389 83.7176 162.554 84.1485 162.886C84.5827 163.217 84.8909 163.655 85.0732 164.198ZM92.3877 164.198L91.3337 164.497C91.2674 164.321 91.1696 164.15 91.0404 163.985C90.9144 163.816 90.7421 163.676 90.5233 163.567C90.3046 163.458 90.0245 163.403 89.6831 163.403C89.2158 163.403 88.8264 163.511 88.5148 163.726C88.2066 163.938 88.0525 164.208 88.0525 164.536C88.0525 164.828 88.1585 165.058 88.3706 165.227C88.5828 165.397 88.9142 165.537 89.365 165.65L90.4985 165.928C91.1812 166.094 91.69 166.348 92.0248 166.689C92.3595 167.027 92.5269 167.463 92.5269 167.997C92.5269 168.434 92.4009 168.825 92.149 169.17C91.9005 169.515 91.5525 169.786 91.105 169.985C90.6576 170.184 90.1372 170.284 89.5439 170.284C88.765 170.284 88.1204 170.115 87.61 169.777C87.0996 169.438 86.7764 168.945 86.6405 168.295L87.7542 168.017C87.8602 168.428 88.0607 168.736 88.3557 168.941C88.654 169.147 89.0435 169.25 89.524 169.25C90.0709 169.25 90.5051 169.134 90.8266 168.902C91.1514 168.666 91.3138 168.384 91.3138 168.056C91.3138 167.791 91.221 167.569 91.0354 167.39C90.8498 167.208 90.5648 167.072 90.1803 166.982L88.9076 166.684C88.2082 166.518 87.6945 166.262 87.3664 165.914C87.0416 165.562 86.8792 165.123 86.8792 164.596C86.8792 164.165 87.0001 163.784 87.2421 163.453C87.4873 163.121 87.8204 162.861 88.2414 162.672C88.6656 162.483 89.1462 162.389 89.6831 162.389C90.4388 162.389 91.0321 162.554 91.463 162.886C91.8971 163.217 92.2054 163.655 92.3877 164.198ZM97.3953 170.284C96.7059 170.284 96.101 170.12 95.5807 169.791C95.0636 169.463 94.6593 169.004 94.3676 168.414C94.0793 167.824 93.9351 167.135 93.9351 166.346C93.9351 165.551 94.0793 164.856 94.3676 164.263C94.6593 163.67 95.0636 163.209 95.5807 162.881C96.101 162.553 96.7059 162.389 97.3953 162.389C98.0847 162.389 98.6879 162.553 99.205 162.881C99.7253 163.209 100.13 163.67 100.418 164.263C100.71 164.856 100.856 165.551 100.856 166.346C100.856 167.135 100.71 167.824 100.418 168.414C100.13 169.004 99.7253 169.463 99.205 169.791C98.6879 170.12 98.0847 170.284 97.3953 170.284ZM97.3953 169.23C97.919 169.23 98.3499 169.095 98.6879 168.827C99.026 168.558 99.2762 168.205 99.4386 167.768C99.601 167.33 99.6822 166.857 99.6822 166.346C99.6822 165.836 99.601 165.36 99.4386 164.919C99.2762 164.478 99.026 164.122 98.6879 163.85C98.3499 163.579 97.919 163.443 97.3953 163.443C96.8716 163.443 96.4408 163.579 96.1027 163.85C95.7646 164.122 95.5144 164.478 95.352 164.919C95.1896 165.36 95.1084 165.836 95.1084 166.346C95.1084 166.857 95.1896 167.33 95.352 167.768C95.5144 168.205 95.7646 168.558 96.1027 168.827C96.4408 169.095 96.8716 169.23 97.3953 169.23Z"
            fill="white" />
        <rect x="25.2172" y="184.625" width="305" height="11" rx="5.5" fill="#130F24" />
        <rect x="24.7172" y="184.125" width="135" height="12" rx="6" fill="url(#paint0_linear_132_300)" />
        <rect x="25.2172" y="184.625" width="305" height="11" rx="5.5" stroke="#21203C" />
    </g>
    <g filter="url(#filter1_d_132_300)">
        <rect x="84.7172" y="0.124512" width="495" height="114" rx="10" fill="#323161" shape-rendering="crispEdges" />
        <rect x="507.717" y="10.6245" width="62" height="29" rx="5" fill="#404376" />
        <path
            d="M526.742 23.36H525.016C524.967 23.0768 524.876 22.826 524.744 22.6075C524.611 22.3859 524.447 22.1981 524.25 22.0443C524.053 21.8904 523.828 21.775 523.576 21.698C523.326 21.618 523.057 21.578 522.768 21.578C522.254 21.578 521.798 21.7073 521.401 21.9658C521.004 22.2212 520.693 22.5967 520.469 23.0922C520.244 23.5846 520.132 24.1863 520.132 24.8972C520.132 25.6205 520.244 26.2299 520.469 26.7254C520.696 27.2178 521.007 27.5902 521.401 27.8426C521.798 28.0918 522.252 28.2165 522.763 28.2165C523.046 28.2165 523.311 28.1796 523.557 28.1057C523.806 28.0287 524.03 27.9164 524.227 27.7687C524.427 27.621 524.594 27.4394 524.73 27.2239C524.868 27.0085 524.964 26.7623 525.016 26.4853L526.742 26.4945C526.678 26.9439 526.538 27.3655 526.322 27.7595C526.11 28.1534 525.832 28.5012 525.487 28.8028C525.142 29.1013 524.739 29.3352 524.277 29.5045C523.816 29.6707 523.303 29.7538 522.74 29.7538C521.909 29.7538 521.167 29.5614 520.515 29.1767C519.862 28.792 519.348 28.2365 518.973 27.5102C518.597 26.7838 518.41 25.9129 518.41 24.8972C518.41 23.8785 518.599 23.0076 518.978 22.2843C519.356 21.558 519.872 21.0025 520.524 20.6178C521.177 20.2331 521.915 20.0407 522.74 20.0407C523.266 20.0407 523.756 20.1146 524.208 20.2623C524.66 20.41 525.064 20.627 525.418 20.9132C525.771 21.1964 526.062 21.5441 526.29 21.9565C526.521 22.3659 526.672 22.8337 526.742 23.36ZM531.33 29.763C530.638 29.763 530.038 29.6107 529.53 29.306C529.022 29.0013 528.628 28.575 528.348 28.0272C528.071 27.4794 527.932 26.8392 527.932 26.1068C527.932 25.3743 528.071 24.7326 528.348 24.1817C528.628 23.6308 529.022 23.203 529.53 22.8983C530.038 22.5936 530.638 22.4413 531.33 22.4413C532.023 22.4413 532.623 22.5936 533.131 22.8983C533.638 23.203 534.031 23.6308 534.308 24.1817C534.588 24.7326 534.728 25.3743 534.728 26.1068C534.728 26.8392 534.588 27.4794 534.308 28.0272C534.031 28.575 533.638 29.0013 533.131 29.306C532.623 29.6107 532.023 29.763 531.33 29.763ZM531.339 28.4242C531.715 28.4242 532.029 28.3211 532.281 28.1149C532.533 27.9056 532.721 27.6256 532.844 27.2747C532.971 26.9239 533.034 26.533 533.034 26.1021C533.034 25.6682 532.971 25.2758 532.844 24.9249C532.721 24.571 532.533 24.2894 532.281 24.0801C532.029 23.8708 531.715 23.7662 531.339 23.7662C530.955 23.7662 530.635 23.8708 530.379 24.0801C530.127 24.2894 529.937 24.571 529.811 24.9249C529.688 25.2758 529.627 25.6682 529.627 26.1021C529.627 26.533 529.688 26.9239 529.811 27.2747C529.937 27.6256 530.127 27.9056 530.379 28.1149C530.635 28.3211 530.955 28.4242 531.339 28.4242ZM536.146 32.2836V22.5336H537.79V23.7062H537.887C537.973 23.5338 538.094 23.3507 538.251 23.1568C538.408 22.9599 538.621 22.7921 538.888 22.6536C539.156 22.5121 539.498 22.4413 539.913 22.4413C540.461 22.4413 540.955 22.5813 541.395 22.8614C541.838 23.1384 542.189 23.5492 542.448 24.094C542.709 24.6356 542.84 25.3004 542.84 26.0883C542.84 26.8669 542.712 27.5286 542.457 28.0734C542.202 28.6181 541.854 29.0336 541.414 29.3198C540.974 29.606 540.475 29.7492 539.918 29.7492C539.512 29.7492 539.175 29.6814 538.907 29.546C538.639 29.4106 538.424 29.2475 538.261 29.0567C538.101 28.8628 537.976 28.6797 537.887 28.5073H537.817V32.2836H536.146ZM537.785 26.0791C537.785 26.5376 537.85 26.9393 537.979 27.284C538.111 27.6287 538.301 27.8979 538.547 28.0918C538.796 28.2827 539.098 28.3781 539.452 28.3781C539.821 28.3781 540.13 28.2796 540.38 28.0826C540.629 27.8826 540.817 27.6102 540.943 27.2655C541.072 26.9177 541.137 26.5222 541.137 26.0791C541.137 25.639 541.074 25.2481 540.947 24.9065C540.821 24.5649 540.633 24.2971 540.384 24.1032C540.135 23.9093 539.824 23.8124 539.452 23.8124C539.095 23.8124 538.792 23.9062 538.542 24.094C538.293 24.2817 538.104 24.5448 537.974 24.8834C537.848 25.2219 537.785 25.6205 537.785 26.0791ZM544.271 29.6245V22.5336H545.942V29.6245H544.271ZM545.111 21.5272C544.847 21.5272 544.619 21.4395 544.428 21.2641C544.237 21.0856 544.142 20.8717 544.142 20.6224C544.142 20.37 544.237 20.1561 544.428 19.9807C544.619 19.8022 544.847 19.7129 545.111 19.7129C545.379 19.7129 545.607 19.8022 545.795 19.9807C545.986 20.1561 546.081 20.37 546.081 20.6224C546.081 20.8717 545.986 21.0856 545.795 21.2641C545.607 21.4395 545.379 21.5272 545.111 21.5272ZM549.701 29.7676C549.252 29.7676 548.847 29.6876 548.487 29.5276C548.13 29.3645 547.847 29.1244 547.638 28.8074C547.432 28.4904 547.329 28.0995 547.329 27.6348C547.329 27.2347 547.402 26.9039 547.55 26.6423C547.698 26.3807 547.899 26.1714 548.155 26.0144C548.41 25.8575 548.698 25.739 549.018 25.659C549.341 25.5759 549.675 25.5158 550.02 25.4789C550.435 25.4358 550.772 25.3974 551.031 25.3635C551.289 25.3266 551.477 25.2712 551.594 25.1973C551.714 25.1204 551.774 25.0019 551.774 24.8418V24.8141C551.774 24.4664 551.671 24.1971 551.465 24.0063C551.259 23.8154 550.962 23.72 550.574 23.72C550.165 23.72 549.84 23.8093 549.6 23.9878C549.363 24.1663 549.203 24.3771 549.12 24.6203L547.559 24.3987C547.682 23.9678 547.886 23.6077 548.169 23.3184C548.452 23.026 548.798 22.8075 549.207 22.6629C549.617 22.5151 550.069 22.4413 550.565 22.4413C550.906 22.4413 551.246 22.4813 551.585 22.5613C551.923 22.6413 552.233 22.7737 552.513 22.9583C552.793 23.1399 553.018 23.3877 553.187 23.7016C553.359 24.0155 553.445 24.4079 553.445 24.8788V29.6245H551.839V28.6504H551.783C551.682 28.8474 551.539 29.0321 551.354 29.2044C551.173 29.3737 550.943 29.5106 550.666 29.6153C550.392 29.7168 550.071 29.7676 549.701 29.7676ZM550.135 28.5396C550.471 28.5396 550.762 28.4735 551.008 28.3411C551.254 28.2057 551.443 28.0272 551.576 27.8056C551.711 27.584 551.779 27.3424 551.779 27.0808V26.2453C551.726 26.2883 551.637 26.3283 551.511 26.3653C551.388 26.4022 551.249 26.4345 551.096 26.4622C550.942 26.4899 550.789 26.5145 550.639 26.5361C550.488 26.5576 550.357 26.5761 550.246 26.5915C549.997 26.6253 549.774 26.6807 549.577 26.7577C549.38 26.8346 549.224 26.9423 549.11 27.0808C548.997 27.2162 548.94 27.3917 548.94 27.6071C548.94 27.9149 549.052 28.1472 549.277 28.3042C549.501 28.4612 549.788 28.5396 550.135 28.5396ZM555.126 29.6245V22.5336H556.746V23.7154H556.82C556.949 23.3061 557.171 22.9906 557.485 22.769C557.802 22.5444 558.163 22.432 558.57 22.432C558.662 22.432 558.765 22.4367 558.879 22.4459C558.996 22.452 559.093 22.4628 559.17 22.4782V24.0155C559.099 23.9909 558.987 23.9693 558.833 23.9509C558.682 23.9293 558.536 23.9185 558.394 23.9185C558.09 23.9185 557.816 23.9847 557.572 24.1171C557.332 24.2463 557.143 24.4264 557.005 24.6572C556.866 24.888 556.797 25.1542 556.797 25.4558V29.6245H555.126Z"
            fill="white" />
        <path
            d="M115.988 45.1245V44.3575L118.869 41.2041C119.207 40.8347 119.485 40.5137 119.704 40.241C119.922 39.9654 120.084 39.7069 120.19 39.4654C120.297 39.2211 120.351 38.9654 120.351 38.6984C120.351 38.3916 120.278 38.1259 120.13 37.9015C119.985 37.6771 119.786 37.5038 119.533 37.3816C119.28 37.2595 118.996 37.1984 118.681 37.1984C118.346 37.1984 118.053 37.268 117.803 37.4072C117.556 37.5435 117.364 37.7353 117.228 37.9825C117.094 38.2296 117.028 38.5194 117.028 38.8518H116.022C116.022 38.3404 116.14 37.8916 116.376 37.5052C116.611 37.1188 116.932 36.8177 117.339 36.6018C117.748 36.3859 118.207 36.2779 118.715 36.2779C119.226 36.2779 119.68 36.3859 120.074 36.6018C120.469 36.8177 120.779 37.1089 121.003 37.4754C121.228 37.8418 121.34 38.2495 121.34 38.6984C121.34 39.0194 121.282 39.3333 121.165 39.6401C121.052 39.9441 120.853 40.2836 120.569 40.6586C120.288 41.0308 119.897 41.4853 119.397 42.0222L117.437 44.1188V44.187H121.494V45.1245H115.988Z"
            fill="#7E80AF" />
        <path
            d="M149.215 37.5645H150.464L147.714 45.1245H146.314L143.586 37.5645H144.864L147.054 44.0261L149.215 37.5645ZM158.187 43.4732C158.187 43.77 158.235 43.9902 158.331 44.1337C158.426 44.2725 158.584 44.3755 158.804 44.4425L158.51 45.2896C157.782 45.1939 157.321 44.8397 157.124 44.2271C156.856 44.5765 156.516 44.8421 156.105 45.024C155.698 45.2011 155.248 45.2896 154.755 45.2896C154.257 45.2896 153.824 45.1939 153.456 45.0025C153.087 44.811 152.805 44.5406 152.608 44.1912C152.412 43.837 152.314 43.4254 152.314 42.9563C152.314 42.1761 152.618 41.5778 153.226 41.1614C153.834 40.745 154.712 40.5368 155.861 40.5368H156.974V39.905C156.974 39.3785 156.82 38.998 156.514 38.7635C156.208 38.5242 155.76 38.4045 155.172 38.4045C154.602 38.4045 153.946 38.5337 153.204 38.7922L152.888 37.8804C153.731 37.5645 154.554 37.4066 155.358 37.4066C156.282 37.4066 156.983 37.6243 157.462 38.0599C157.945 38.4907 158.187 39.0866 158.187 39.8476V43.4732ZM155.064 44.3707C155.437 44.3707 155.791 44.2773 156.126 44.0907C156.466 43.8992 156.749 43.636 156.974 43.3009V41.3553H155.882C155.083 41.3553 154.504 41.4917 154.145 41.7645C153.786 42.0373 153.606 42.4298 153.606 42.9419C153.606 43.8944 154.092 44.3707 155.064 44.3707ZM166.491 37.3994C166.688 37.3994 166.867 37.4137 167.03 37.4425C167.193 37.4664 167.37 37.5071 167.561 37.5645L167.389 40.1204H166.398V38.5122H166.334C165.75 38.5122 165.252 38.718 164.84 39.1296C164.429 39.5413 164.096 40.1635 163.842 40.9963V44.1984H165.379V45.1245H161.459V44.1984H162.636V38.4907H161.459V37.5645H163.555L163.778 39.3522C164.084 38.6965 164.448 38.2083 164.869 37.8876C165.295 37.5621 165.836 37.3994 166.491 37.3994ZM178.613 45.1245V37.5645H179.64L179.733 38.6127C180.035 38.2346 180.413 37.9402 180.868 37.7296C181.327 37.5143 181.782 37.4066 182.232 37.4066C182.955 37.4066 183.488 37.598 183.833 37.9809C184.182 38.3638 184.357 38.9143 184.357 39.6322V45.1245H183.151V40.5225C183.151 39.9577 183.12 39.5269 183.058 39.2302C183 38.9334 182.878 38.7132 182.691 38.5696C182.509 38.4261 182.232 38.3543 181.859 38.3543C181.452 38.3543 181.066 38.4811 180.703 38.7348C180.344 38.9837 180.049 39.278 179.82 39.6178V45.1245H178.613ZM190.106 37.4066C190.804 37.4066 191.396 37.5669 191.879 37.8876C192.362 38.2035 192.726 38.6582 192.97 39.2517C193.219 39.8404 193.344 40.5368 193.344 41.3409C193.344 42.1211 193.217 42.8079 192.963 43.4014C192.714 43.9949 192.346 44.4592 191.857 44.7943C191.369 45.1245 190.781 45.2896 190.091 45.2896C189.393 45.2896 188.799 45.1293 188.311 44.8086C187.827 44.4831 187.461 44.0261 187.212 43.4373C186.963 42.8486 186.839 42.1546 186.839 41.3553C186.839 40.5703 186.963 39.8811 187.212 39.2876C187.466 38.6941 187.837 38.2322 188.325 37.9019C188.818 37.5717 189.412 37.4066 190.106 37.4066ZM190.106 38.3902C189.45 38.3902 188.957 38.6343 188.627 39.1225C188.296 39.6059 188.131 40.3502 188.131 41.3553C188.131 42.3461 188.294 43.0855 188.62 43.5737C188.945 44.0572 189.436 44.2989 190.091 44.2989C190.747 44.2989 191.238 44.0572 191.563 43.5737C191.889 43.0855 192.051 42.3413 192.051 41.3409C192.051 40.3454 191.889 39.6059 191.563 39.1225C191.238 38.6343 190.752 38.3902 190.106 38.3902ZM200.823 37.4066C201.253 37.4066 201.605 37.5573 201.878 37.8589C202.151 38.1556 202.287 38.7013 202.287 39.4958V45.1245H201.167V39.6896C201.167 39.3307 201.155 39.0626 201.131 38.8855C201.107 38.7037 201.055 38.5696 200.973 38.4835C200.892 38.3925 200.763 38.3471 200.586 38.3471C200.093 38.3471 199.652 38.6486 199.265 39.2517V45.1245H198.137V39.6896C198.137 39.3307 198.125 39.0626 198.102 38.8855C198.078 38.7037 198.025 38.5696 197.944 38.4835C197.862 38.3925 197.733 38.3471 197.556 38.3471C197.063 38.3471 196.623 38.6486 196.235 39.2517V45.1245H195.122V37.5645H196.07L196.142 38.4404C196.371 38.1102 196.615 37.8565 196.874 37.6794C197.132 37.4975 197.436 37.4066 197.786 37.4066C198.499 37.4066 198.956 37.7392 199.157 38.4045C199.382 38.079 199.624 37.8325 199.882 37.665C200.145 37.4927 200.459 37.4066 200.823 37.4066ZM205.401 41.7717C205.42 42.3365 205.53 42.8079 205.731 43.1861C205.932 43.5594 206.195 43.837 206.521 44.0189C206.846 44.196 207.21 44.2845 207.612 44.2845C207.986 44.2845 208.328 44.2295 208.639 44.1194C208.955 44.0093 209.285 43.837 209.63 43.6025L210.197 44.3994C209.843 44.677 209.436 44.8948 208.976 45.0527C208.522 45.2107 208.062 45.2896 207.598 45.2896C206.875 45.2896 206.253 45.1269 205.731 44.8014C205.21 44.476 204.812 44.0165 204.539 43.423C204.271 42.8295 204.137 42.1402 204.137 41.3553C204.137 40.5943 204.274 39.9146 204.547 39.3163C204.819 38.718 205.205 38.2513 205.703 37.9163C206.2 37.5765 206.779 37.4066 207.44 37.4066C208.072 37.4066 208.617 37.5549 209.077 37.8517C209.541 38.1484 209.895 38.5768 210.139 39.1368C210.388 39.692 210.513 40.3502 210.513 41.1112C210.513 41.3313 210.503 41.5515 210.484 41.7717H205.401ZM207.454 38.3973C206.87 38.3973 206.394 38.6031 206.026 39.0148C205.662 39.4216 205.456 40.0295 205.408 40.8384H209.35C209.335 40.0438 209.161 39.4384 208.826 39.0219C208.491 38.6055 208.033 38.3973 207.454 38.3973ZM218.896 36.2578H214.675V39.5891H218.336V40.6158H214.675V44.1266H219.169V45.1245H213.426V35.2384H219.04L218.896 36.2578ZM226.662 37.4066C227.093 37.4066 227.445 37.5573 227.718 37.8589C227.991 38.1556 228.127 38.7013 228.127 39.4958V45.1245H227.007V39.6896C227.007 39.3307 226.995 39.0626 226.971 38.8855C226.947 38.7037 226.895 38.5696 226.813 38.4835C226.732 38.3925 226.603 38.3471 226.425 38.3471C225.932 38.3471 225.492 38.6486 225.104 39.2517V45.1245H223.977V39.6896C223.977 39.3307 223.965 39.0626 223.941 38.8855C223.917 38.7037 223.865 38.5696 223.783 38.4835C223.702 38.3925 223.573 38.3471 223.396 38.3471C222.903 38.3471 222.462 38.6486 222.075 39.2517V45.1245H220.962V37.5645H221.91L221.981 38.4404C222.211 38.1102 222.455 37.8565 222.714 37.6794C222.972 37.4975 223.276 37.4066 223.625 37.4066C224.339 37.4066 224.796 37.7392 224.997 38.4045C225.222 38.079 225.463 37.8325 225.722 37.665C225.985 37.4927 226.299 37.4066 226.662 37.4066ZM233.675 37.4066C234.641 37.4066 235.338 37.7488 235.764 38.4332C236.195 39.1177 236.41 40.0869 236.41 41.3409C236.41 42.1211 236.302 42.8079 236.087 43.4014C235.872 43.9902 235.544 44.452 235.103 44.7871C234.668 45.1221 234.132 45.2896 233.495 45.2896C232.662 45.2896 231.997 44.9977 231.499 44.4137V48.0178L230.293 48.1686V37.5645H231.32L231.42 38.6199C231.698 38.2274 232.028 37.9283 232.411 37.7225C232.799 37.5119 233.22 37.4066 233.675 37.4066ZM233.387 38.3758C233 38.3758 232.646 38.4907 232.325 38.7204C232.009 38.9502 231.734 39.2397 231.499 39.5891V43.3368C231.7 43.6336 231.949 43.8657 232.246 44.0332C232.547 44.2008 232.875 44.2845 233.23 44.2845C233.861 44.2845 234.333 44.0428 234.644 43.5594C234.96 43.076 235.118 42.3341 235.118 41.3337C235.118 40.3382 234.977 39.5963 234.694 39.1081C234.412 38.6199 233.976 38.3758 233.387 38.3758ZM244.011 37.3994C244.207 37.3994 244.387 37.4137 244.549 37.4425C244.712 37.4664 244.889 37.5071 245.081 37.5645L244.908 40.1204H243.918V38.5122H243.853C243.269 38.5122 242.771 38.718 242.36 39.1296C241.948 39.5413 241.615 40.1635 241.362 40.9963V44.1984H242.898V45.1245H238.978V44.1984H240.156V38.4907H238.978V37.5645H241.075L241.297 39.3522C241.603 38.6965 241.967 38.2083 242.388 37.8876C242.814 37.5621 243.355 37.3994 244.011 37.3994ZM248.467 41.7717C248.487 42.3365 248.597 42.8079 248.798 43.1861C248.999 43.5594 249.262 43.837 249.587 44.0189C249.913 44.196 250.277 44.2845 250.679 44.2845C251.052 44.2845 251.394 44.2295 251.705 44.1194C252.021 44.0093 252.351 43.837 252.696 43.6025L253.263 44.3994C252.909 44.677 252.502 44.8948 252.043 45.0527C251.588 45.2107 251.129 45.2896 250.664 45.2896C249.942 45.2896 249.319 45.1269 248.798 44.8014C248.276 44.476 247.879 44.0165 247.606 43.423C247.338 42.8295 247.204 42.1402 247.204 41.3553C247.204 40.5943 247.34 39.9146 247.613 39.3163C247.886 38.718 248.271 38.2513 248.769 37.9163C249.267 37.5765 249.846 37.4066 250.506 37.4066C251.138 37.4066 251.684 37.5549 252.143 37.8517C252.608 38.1484 252.962 38.5768 253.206 39.1368C253.455 39.692 253.579 40.3502 253.579 41.1112C253.579 41.3313 253.57 41.5515 253.55 41.7717H248.467ZM250.521 38.3973C249.937 38.3973 249.461 38.6031 249.092 39.0148C248.728 39.4216 248.522 40.0295 248.475 40.8384H252.416C252.402 40.0438 252.227 39.4384 251.892 39.0219C251.557 38.6055 251.1 38.3973 250.521 38.3973ZM258.703 44.2917C259.282 44.2917 259.739 44.184 260.074 43.9686C260.414 43.7532 260.584 43.4613 260.584 43.0927C260.584 42.8438 260.539 42.6404 260.448 42.4825C260.362 42.3197 260.187 42.1713 259.924 42.0373C259.665 41.9033 259.275 41.7717 258.753 41.6425C258.174 41.4989 257.7 41.3433 257.332 41.1758C256.968 41.0035 256.683 40.7809 256.478 40.5081C256.277 40.2353 256.176 39.8883 256.176 39.4671C256.176 39.0507 256.296 38.6869 256.535 38.3758C256.774 38.0647 257.109 37.8254 257.54 37.6578C257.976 37.4903 258.478 37.4066 259.048 37.4066C259.617 37.4066 260.13 37.4831 260.584 37.6363C261.044 37.7847 261.446 37.9857 261.79 38.2394L261.259 39.0578C260.943 38.8425 260.611 38.6773 260.261 38.5625C259.917 38.4428 259.517 38.383 259.062 38.383C258.493 38.383 258.076 38.4715 257.813 38.6486C257.554 38.8209 257.425 39.0626 257.425 39.3737C257.425 39.5987 257.485 39.783 257.605 39.9266C257.729 40.0702 257.928 40.1994 258.201 40.3143C258.478 40.4243 258.89 40.5536 259.436 40.7019C259.981 40.8503 260.429 41.0155 260.778 41.1973C261.127 41.3792 261.4 41.6185 261.597 41.9153C261.793 42.2072 261.891 42.5806 261.891 43.0353C261.891 43.5474 261.743 43.9734 261.446 44.3132C261.149 44.6483 260.759 44.8948 260.276 45.0527C259.797 45.2107 259.273 45.2896 258.703 45.2896C257.516 45.2896 256.53 44.9498 255.745 44.2702L256.434 43.4732C256.741 43.7317 257.088 43.9327 257.476 44.0763C257.863 44.2199 258.272 44.2917 258.703 44.2917ZM270.16 43.4732C270.16 43.77 270.207 43.9902 270.303 44.1337C270.399 44.2725 270.557 44.3755 270.777 44.4425L270.483 45.2896C269.755 45.1939 269.293 44.8397 269.097 44.2271C268.829 44.5765 268.489 44.8421 268.078 45.024C267.671 45.2011 267.221 45.2896 266.728 45.2896C266.23 45.2896 265.797 45.1939 265.428 45.0025C265.06 44.811 264.777 44.5406 264.581 44.1912C264.385 43.837 264.287 43.4254 264.287 42.9563C264.287 42.1761 264.591 41.5778 265.199 41.1614C265.806 40.745 266.685 40.5368 267.833 40.5368H268.946V39.905C268.946 39.3785 268.793 38.998 268.487 38.7635C268.18 38.5242 267.733 38.4045 267.144 38.4045C266.575 38.4045 265.919 38.5337 265.177 38.7922L264.861 37.8804C265.704 37.5645 266.527 37.4066 267.331 37.4066C268.255 37.4066 268.956 37.6243 269.434 38.0599C269.918 38.4907 270.16 39.0866 270.16 39.8476V43.4732ZM267.036 44.3707C267.41 44.3707 267.764 44.2773 268.099 44.0907C268.439 43.8992 268.721 43.636 268.946 43.3009V41.3553H267.855C267.056 41.3553 266.476 41.4917 266.118 41.7645C265.759 42.0373 265.579 42.4298 265.579 42.9419C265.579 43.8944 266.065 44.3707 267.036 44.3707ZM282.045 38.7778H287.63V39.8189H282.045V38.7778ZM282.045 41.4989H287.63V42.5471H282.045V41.4989ZM396.796 37.7871C397.016 37.7871 397.215 37.8397 397.392 37.945C397.569 38.0455 397.708 38.1843 397.808 38.3614C397.913 38.5385 397.966 38.7324 397.966 38.943C397.966 39.1536 397.913 39.3498 397.808 39.5317C397.708 39.7088 397.569 39.85 397.392 39.9553C397.215 40.0606 397.016 40.1132 396.796 40.1132C396.58 40.1132 396.384 40.0606 396.207 39.9553C396.035 39.85 395.896 39.7088 395.791 39.5317C395.69 39.3498 395.64 39.1536 395.64 38.943C395.64 38.7324 395.69 38.5385 395.791 38.3614C395.896 38.1843 396.035 38.0455 396.207 37.945C396.384 37.8397 396.58 37.7871 396.796 37.7871ZM396.796 42.7481C397.016 42.7481 397.215 42.8008 397.392 42.9061C397.569 43.0066 397.708 43.1454 397.808 43.3225C397.913 43.4948 397.966 43.6862 397.966 43.8968C397.966 44.0835 397.944 44.2654 397.901 44.4425C397.858 44.6196 397.784 44.8182 397.679 45.0384L396.516 47.7091H395.424L396.114 44.8589C395.965 44.7584 395.848 44.6243 395.762 44.4568C395.68 44.2845 395.64 44.1002 395.64 43.904C395.64 43.6934 395.69 43.4996 395.791 43.3225C395.896 43.1454 396.035 43.0066 396.207 42.9061C396.384 42.8008 396.58 42.7481 396.796 42.7481Z"
            fill="white" />
        <path
            d="M301.396 38.2537H300.334L300.104 34.5204H301.619L301.396 38.2537ZM303.794 38.2537H302.732L302.516 34.5204H304.024L303.794 38.2537ZM307.849 35.2384H313.506V36.2363H311.309V44.1266H313.506V45.1245H307.849V44.1266H310.045V36.2363H307.849V35.2384ZM316.426 45.1245V37.5645H317.453L317.546 38.6127C317.847 38.2346 318.226 37.9402 318.68 37.7296C319.14 37.5143 319.594 37.4066 320.044 37.4066C320.767 37.4066 321.301 37.598 321.645 37.9809C321.995 38.3638 322.17 38.9143 322.17 39.6322V45.1245H320.963V40.5225C320.963 39.9577 320.932 39.5269 320.87 39.2302C320.813 38.9334 320.691 38.7132 320.504 38.5696C320.322 38.4261 320.044 38.3543 319.671 38.3543C319.264 38.3543 318.879 38.4811 318.515 38.7348C318.156 38.9837 317.862 39.278 317.632 39.6178V45.1245H316.426ZM331.041 44.744C330.788 44.9115 330.474 45.0431 330.101 45.1389C329.732 45.2394 329.371 45.2896 329.017 45.2896C328.485 45.2896 328.028 45.1939 327.645 45.0025C327.267 44.8062 326.978 44.5358 326.777 44.1912C326.576 43.8466 326.475 43.4517 326.475 43.0066V38.4978H324.738V37.5645H326.475V35.8486L327.681 35.705V37.5645H330.295L330.151 38.4978H327.681V42.9922C327.681 43.423 327.794 43.7461 328.019 43.9614C328.248 44.1768 328.617 44.2845 329.124 44.2845C329.636 44.2845 330.12 44.1649 330.575 43.9255L331.041 44.744ZM334.6 41.7717C334.619 42.3365 334.729 42.8079 334.93 43.1861C335.131 43.5594 335.395 43.837 335.72 44.0189C336.046 44.196 336.409 44.2845 336.811 44.2845C337.185 44.2845 337.527 44.2295 337.838 44.1194C338.154 44.0093 338.484 43.837 338.829 43.6025L339.396 44.3994C339.042 44.677 338.635 44.8948 338.176 45.0527C337.721 45.2107 337.261 45.2896 336.797 45.2896C336.074 45.2896 335.452 45.1269 334.93 44.8014C334.409 44.476 334.011 44.0165 333.739 43.423C333.471 42.8295 333.337 42.1402 333.337 41.3553C333.337 40.5943 333.473 39.9146 333.746 39.3163C334.019 38.718 334.404 38.2513 334.902 37.9163C335.399 37.5765 335.979 37.4066 336.639 37.4066C337.271 37.4066 337.817 37.5549 338.276 37.8517C338.74 38.1484 339.095 38.5768 339.339 39.1368C339.588 39.692 339.712 40.3502 339.712 41.1112C339.712 41.3313 339.702 41.5515 339.683 41.7717H334.6ZM336.654 38.3973C336.07 38.3973 335.593 38.6031 335.225 39.0148C334.861 39.4216 334.655 40.0295 334.607 40.8384H338.549C338.535 40.0438 338.36 39.4384 338.025 39.0219C337.69 38.6055 337.233 38.3973 336.654 38.3973ZM345.209 43.2578C345.209 43.612 345.319 43.8729 345.54 44.0404C345.765 44.2031 346.071 44.2845 346.459 44.2845C346.865 44.2845 347.289 44.196 347.729 44.0189L348.052 44.9019C347.823 45.0168 347.555 45.1102 347.248 45.1819C346.942 45.2537 346.612 45.2896 346.258 45.2896C345.812 45.2896 345.418 45.2059 345.073 45.0384C344.733 44.8708 344.47 44.6291 344.283 44.3132C344.097 43.9973 344.003 43.624 344.003 43.1932V35.4753H341.684V34.5204H345.209V43.2578ZM353.823 43.2578C353.823 43.612 353.933 43.8729 354.153 44.0404C354.378 44.2031 354.684 44.2845 355.072 44.2845C355.479 44.2845 355.902 44.196 356.343 44.0189L356.666 44.9019C356.436 45.0168 356.168 45.1102 355.862 45.1819C355.555 45.2537 355.225 45.2896 354.871 45.2896C354.426 45.2896 354.031 45.2059 353.686 45.0384C353.346 44.8708 353.083 44.6291 352.896 44.3132C352.71 43.9973 352.616 43.624 352.616 43.1932V35.4753H350.298V34.5204H353.823V43.2578ZM362.357 34.025C362.62 34.025 362.833 34.1064 362.996 34.2691C363.159 34.4271 363.24 34.6257 363.24 34.865C363.24 35.1139 363.159 35.3197 362.996 35.4825C362.833 35.6452 362.62 35.7266 362.357 35.7266C362.103 35.7266 361.895 35.6452 361.732 35.4825C361.57 35.3149 361.488 35.1091 361.488 34.865C361.488 34.6257 361.57 34.4271 361.732 34.2691C361.895 34.1064 362.103 34.025 362.357 34.025ZM359.851 37.5645H363.319V44.1696H365.451V45.1245H359.78V44.1696H362.113V38.5194H359.851V37.5645ZM374.61 40.1922C374.61 41.2069 374.471 42.0972 374.194 42.863C373.921 43.6288 373.512 44.2247 372.966 44.6507C372.42 45.0766 371.755 45.2896 370.97 45.2896C370.185 45.2896 369.52 45.0814 368.974 44.665C368.429 44.2486 368.017 43.6599 367.739 42.8989C367.467 42.1331 367.33 41.2356 367.33 40.2066C367.33 39.1919 367.467 38.2992 367.739 37.5286C368.017 36.758 368.429 36.1573 368.974 35.7266C369.52 35.2958 370.185 35.0804 370.97 35.0804C371.755 35.0804 372.42 35.291 372.966 35.7122C373.512 36.1334 373.921 36.7293 374.194 37.4999C374.471 38.2657 374.61 39.1631 374.61 40.1922ZM373.304 40.1922C373.304 38.8377 373.117 37.8206 372.744 37.1409C372.375 36.4613 371.784 36.1214 370.97 36.1214C370.157 36.1214 369.563 36.4637 369.19 37.1481C368.821 37.8325 368.637 38.852 368.637 40.2066C368.637 41.5467 368.826 42.5543 369.204 43.2291C369.582 43.904 370.171 44.2414 370.97 44.2414C371.784 44.2414 372.375 43.904 372.744 43.2291C373.117 42.5543 373.304 41.5419 373.304 40.1922ZM376.719 45.1245V37.5645H377.746L377.839 38.6127C378.14 38.2346 378.519 37.9402 378.973 37.7296C379.433 37.5143 379.887 37.4066 380.337 37.4066C381.06 37.4066 381.594 37.598 381.938 37.9809C382.288 38.3638 382.462 38.9143 382.462 39.6322V45.1245H381.256V40.5225C381.256 39.9577 381.225 39.5269 381.163 39.2302C381.106 38.9334 380.984 38.7132 380.797 38.5696C380.615 38.4261 380.337 38.3543 379.964 38.3543C379.557 38.3543 379.172 38.4811 378.808 38.7348C378.449 38.9837 378.155 39.278 377.925 39.6178V45.1245H376.719ZM387.529 38.2537H386.467L386.237 34.5204H387.752L387.529 38.2537ZM389.927 38.2537H388.864L388.649 34.5204H390.157L389.927 38.2537Z"
            fill="#A3D9FD" />
        <path
            d="M118.749 74.7438C118.187 74.7438 117.685 74.6472 117.245 74.4541C116.807 74.2609 116.459 73.9924 116.201 73.6487C115.945 73.3021 115.806 72.9001 115.783 72.4427H116.857C116.88 72.7239 116.976 72.9668 117.147 73.1714C117.317 73.3731 117.54 73.5293 117.816 73.6401C118.092 73.7509 118.397 73.8063 118.732 73.8063C119.107 73.8063 119.44 73.741 119.729 73.6103C120.019 73.4796 120.246 73.2978 120.411 73.0649C120.576 72.8319 120.658 72.562 120.658 72.2552C120.658 71.9342 120.579 71.6515 120.42 71.4072C120.261 71.16 120.028 70.9668 119.721 70.8276C119.414 70.6884 119.039 70.6188 118.596 70.6188H117.897V69.6813H118.596C118.942 69.6813 119.246 69.6188 119.508 69.4938C119.772 69.3688 119.978 69.1927 120.126 68.9654C120.276 68.7381 120.351 68.4711 120.351 68.1643C120.351 67.8688 120.286 67.6117 120.155 67.393C120.025 67.1742 119.84 67.0038 119.601 66.8816C119.366 66.7595 119.087 66.6984 118.766 66.6984C118.465 66.6984 118.181 66.7538 117.914 66.8646C117.65 66.9725 117.434 67.1302 117.266 67.3376C117.099 67.5421 117.008 67.7893 116.994 68.0791H115.971C115.988 67.6217 116.126 67.2211 116.384 66.8774C116.643 66.5308 116.981 66.2609 117.398 66.0677C117.819 65.8745 118.28 65.7779 118.783 65.7779C119.323 65.7779 119.786 65.8873 120.172 66.106C120.559 66.322 120.856 66.6075 121.063 66.9626C121.27 67.3177 121.374 67.7012 121.374 68.1131C121.374 68.6046 121.245 69.0237 120.986 69.3703C120.731 69.7168 120.383 69.9569 119.942 70.0904V70.1586C120.494 70.2495 120.924 70.4839 121.234 70.8617C121.543 71.2367 121.698 71.7012 121.698 72.2552C121.698 72.7296 121.569 73.1558 121.31 73.5336C121.055 73.9086 120.705 74.2041 120.262 74.42C119.819 74.6359 119.315 74.7438 118.749 74.7438Z"
            fill="#7E80AF" />
        <path
            d="M149.215 57.5645H150.464L147.714 65.1245H146.314L143.586 57.5645H144.864L147.054 64.0261L149.215 57.5645ZM158.187 63.4732C158.187 63.77 158.235 63.9902 158.331 64.1337C158.426 64.2725 158.584 64.3755 158.804 64.4425L158.51 65.2896C157.782 65.1939 157.321 64.8397 157.124 64.2271C156.856 64.5765 156.516 64.8421 156.105 65.024C155.698 65.2011 155.248 65.2896 154.755 65.2896C154.257 65.2896 153.824 65.1939 153.456 65.0025C153.087 64.811 152.805 64.5406 152.608 64.1912C152.412 63.837 152.314 63.4254 152.314 62.9563C152.314 62.1761 152.618 61.5778 153.226 61.1614C153.834 60.745 154.712 60.5368 155.861 60.5368H156.974V59.905C156.974 59.3785 156.82 58.998 156.514 58.7635C156.208 58.5242 155.76 58.4045 155.172 58.4045C154.602 58.4045 153.946 58.5337 153.204 58.7922L152.888 57.8804C153.731 57.5645 154.554 57.4066 155.358 57.4066C156.282 57.4066 156.983 57.6243 157.462 58.0599C157.945 58.4907 158.187 59.0866 158.187 59.8476V63.4732ZM155.064 64.3707C155.437 64.3707 155.791 64.2773 156.126 64.0907C156.466 63.8992 156.749 63.636 156.974 63.3009V61.3553H155.882C155.083 61.3553 154.504 61.4917 154.145 61.7645C153.786 62.0373 153.606 62.4298 153.606 62.9419C153.606 63.8944 154.092 64.3707 155.064 64.3707ZM166.491 57.3994C166.688 57.3994 166.867 57.4137 167.03 57.4425C167.193 57.4664 167.37 57.5071 167.561 57.5645L167.389 60.1204H166.398V58.5122H166.334C165.75 58.5122 165.252 58.718 164.84 59.1296C164.429 59.5413 164.096 60.1635 163.842 60.9963V64.1984H165.379V65.1245H161.459V64.1984H162.636V58.4907H161.459V57.5645H163.555L163.778 59.3522C164.084 58.6965 164.448 58.2083 164.869 57.8876C165.295 57.5621 165.836 57.3994 166.491 57.3994ZM181.184 64.2917C181.763 64.2917 182.22 64.184 182.555 63.9686C182.895 63.7532 183.065 63.4613 183.065 63.0927C183.065 62.8438 183.019 62.6404 182.928 62.4825C182.842 62.3197 182.667 62.1713 182.404 62.0373C182.146 61.9033 181.756 61.7717 181.234 61.6425C180.655 61.4989 180.181 61.3433 179.812 61.1758C179.449 61.0035 179.164 60.7809 178.958 60.5081C178.757 60.2353 178.657 59.8883 178.657 59.4671C178.657 59.0507 178.776 58.6869 179.015 58.3758C179.255 58.0647 179.59 57.8254 180.021 57.6578C180.456 57.4903 180.959 57.4066 181.528 57.4066C182.098 57.4066 182.61 57.4831 183.065 57.6363C183.524 57.7847 183.926 57.9857 184.271 58.2394L183.74 59.0578C183.424 58.8425 183.091 58.6773 182.742 58.5625C182.397 58.4428 181.997 58.383 181.543 58.383C180.973 58.383 180.557 58.4715 180.293 58.6486C180.035 58.8209 179.906 59.0626 179.906 59.3737C179.906 59.5987 179.966 59.783 180.085 59.9266C180.21 60.0702 180.408 60.1994 180.681 60.3143C180.959 60.4243 181.37 60.5536 181.916 60.7019C182.462 60.8503 182.909 61.0155 183.259 61.1973C183.608 61.3792 183.881 61.6185 184.077 61.9153C184.273 62.2072 184.371 62.5806 184.371 63.0353C184.371 63.5474 184.223 63.9734 183.926 64.3132C183.629 64.6483 183.239 64.8948 182.756 65.0527C182.277 65.2107 181.753 65.2896 181.184 65.2896C179.997 65.2896 179.011 64.9498 178.226 64.2702L178.915 63.4732C179.221 63.7317 179.568 63.9327 179.956 64.0763C180.344 64.2199 180.753 64.2917 181.184 64.2917ZM190.17 63.2578C190.17 63.612 190.28 63.8729 190.501 64.0404C190.726 64.2031 191.032 64.2845 191.42 64.2845C191.826 64.2845 192.25 64.196 192.69 64.0189L193.013 64.9019C192.784 65.0168 192.516 65.1102 192.209 65.1819C191.903 65.2537 191.573 65.2896 191.219 65.2896C190.773 65.2896 190.379 65.2059 190.034 65.0384C189.694 64.8708 189.431 64.6291 189.244 64.3132C189.057 63.9973 188.964 63.624 188.964 63.1932V55.4753H186.645V54.5204H190.17V63.2578ZM198.719 57.4066C199.418 57.4066 200.009 57.5669 200.492 57.8876C200.976 58.2035 201.339 58.6582 201.584 59.2517C201.832 59.8404 201.957 60.5368 201.957 61.3409C201.957 62.1211 201.83 62.8079 201.576 63.4014C201.328 63.9949 200.959 64.4592 200.471 64.7943C199.983 65.1245 199.394 65.2896 198.705 65.2896C198.006 65.2896 197.412 65.1293 196.924 64.8086C196.441 64.4831 196.075 64.0261 195.826 63.4373C195.577 62.8486 195.452 62.1546 195.452 61.3553C195.452 60.5703 195.577 59.8811 195.826 59.2876C196.079 58.6941 196.45 58.2322 196.938 57.9019C197.431 57.5717 198.025 57.4066 198.719 57.4066ZM198.719 58.3902C198.063 58.3902 197.57 58.6343 197.24 59.1225C196.91 59.6059 196.745 60.3502 196.745 61.3553C196.745 62.3461 196.907 63.0855 197.233 63.5737C197.558 64.0572 198.049 64.2989 198.705 64.2989C199.36 64.2989 199.851 64.0572 200.176 63.5737C200.502 63.0855 200.665 62.3413 200.665 61.3409C200.665 60.3454 200.502 59.6059 200.176 59.1225C199.851 58.6343 199.365 58.3902 198.719 58.3902ZM210.972 57.8948C210.675 57.9857 210.357 58.0455 210.017 58.0743C209.682 58.103 209.264 58.1173 208.761 58.1173C209.637 58.5194 210.075 59.1536 210.075 60.0199C210.075 60.5177 209.96 60.9628 209.73 61.3553C209.505 61.743 209.177 62.0469 208.747 62.2671C208.321 62.4825 207.816 62.5902 207.232 62.5902C206.983 62.5902 206.772 62.5806 206.6 62.5614C206.432 62.5375 206.267 62.4992 206.105 62.4466C205.99 62.5279 205.894 62.6356 205.817 62.7696C205.746 62.8989 205.71 63.0353 205.71 63.1789C205.71 63.3751 205.786 63.5307 205.939 63.6455C206.093 63.7556 206.353 63.8107 206.722 63.8107H208.086C208.584 63.8107 209.036 63.9016 209.443 64.0835C209.855 64.2606 210.175 64.5071 210.405 64.823C210.64 65.1341 210.757 65.4811 210.757 65.864C210.757 66.6059 210.443 67.1755 209.816 67.5727C209.189 67.97 208.299 68.1686 207.146 68.1686C206.351 68.1686 205.719 68.0872 205.25 67.9245C204.786 67.7618 204.453 67.5129 204.252 67.1778C204.051 66.8476 203.951 66.4192 203.951 65.8927H205.042C205.042 66.2038 205.099 66.4503 205.214 66.6322C205.334 66.8189 205.545 66.9577 205.846 67.0486C206.152 67.1396 206.583 67.185 207.138 67.185C207.962 67.185 208.567 67.0821 208.955 66.8763C209.343 66.6705 209.536 66.3594 209.536 65.943C209.536 65.5936 209.378 65.3255 209.063 65.1389C208.747 64.9522 208.335 64.8589 207.828 64.8589H206.478C206.061 64.8589 205.71 64.7943 205.423 64.665C205.135 64.5358 204.922 64.3635 204.784 64.1481C204.645 63.9327 204.575 63.6958 204.575 63.4373C204.575 63.1932 204.647 62.9563 204.791 62.7266C204.934 62.4968 205.14 62.2934 205.408 62.1163C204.973 61.8866 204.652 61.6018 204.446 61.2619C204.24 60.9221 204.137 60.5105 204.137 60.0271C204.137 59.5245 204.264 59.0746 204.518 58.6773C204.776 58.2753 205.133 57.9618 205.588 57.7368C206.047 57.5119 206.569 57.3994 207.153 57.3994C207.761 57.3994 208.263 57.3755 208.66 57.3276C209.058 57.2749 209.39 57.2055 209.658 57.1194C209.931 57.0332 210.245 56.9136 210.599 56.7604L210.972 57.8948ZM207.153 58.2825C206.564 58.2825 206.119 58.4404 205.817 58.7563C205.521 59.0722 205.372 59.4958 205.372 60.0271C205.372 60.5631 205.523 60.9915 205.825 61.3122C206.131 61.6281 206.583 61.7861 207.181 61.7861C207.708 61.7861 208.112 61.6329 208.395 61.3266C208.682 61.0155 208.826 60.5799 208.826 60.0199C208.826 59.4503 208.684 59.0196 208.402 58.7276C208.12 58.4308 207.703 58.2825 207.153 58.2825ZM218.48 63.4732C218.48 63.77 218.528 63.9902 218.623 64.1337C218.719 64.2725 218.877 64.3755 219.097 64.4425L218.803 65.2896C218.075 65.1939 217.614 64.8397 217.417 64.2271C217.149 64.5765 216.809 64.8421 216.398 65.024C215.991 65.2011 215.541 65.2896 215.048 65.2896C214.55 65.2896 214.117 65.1939 213.749 65.0025C213.38 64.811 213.098 64.5406 212.901 64.1912C212.705 63.837 212.607 63.4254 212.607 62.9563C212.607 62.1761 212.911 61.5778 213.519 61.1614C214.127 60.745 215.005 60.5368 216.154 60.5368H217.267V59.905C217.267 59.3785 217.113 58.998 216.807 58.7635C216.501 58.5242 216.053 58.4045 215.464 58.4045C214.895 58.4045 214.239 58.5337 213.497 58.7922L213.181 57.8804C214.024 57.5645 214.847 57.4066 215.651 57.4066C216.575 57.4066 217.276 57.6243 217.755 58.0599C218.238 58.4907 218.48 59.0866 218.48 59.8476V63.4732ZM215.357 64.3707C215.73 64.3707 216.084 64.2773 216.419 64.0907C216.759 63.8992 217.042 63.636 217.267 63.3009V61.3553H216.175C215.376 61.3553 214.797 61.4917 214.438 61.7645C214.079 62.0373 213.899 62.4298 213.899 62.9419C213.899 63.8944 214.385 64.3707 215.357 64.3707ZM221.68 65.1245V57.5645H222.706L222.8 58.6127C223.101 58.2346 223.479 57.9402 223.934 57.7296C224.394 57.5143 224.848 57.4066 225.298 57.4066C226.021 57.4066 226.555 57.598 226.899 57.9809C227.249 58.3638 227.423 58.9143 227.423 59.6322V65.1245H226.217V60.5225C226.217 59.9577 226.186 59.5269 226.124 59.2302C226.066 58.9334 225.944 58.7132 225.758 58.5696C225.576 58.4261 225.298 58.3543 224.925 58.3543C224.518 58.3543 224.133 58.4811 223.769 58.7348C223.41 58.9837 223.116 59.278 222.886 59.6178V65.1245H221.68ZM236.123 56.2578H231.901V59.5891H235.563V60.6158H231.901V64.1266H236.396V65.1245H230.652V55.2384H236.266L236.123 56.2578ZM243.889 57.4066C244.32 57.4066 244.672 57.5573 244.944 57.8589C245.217 58.1556 245.354 58.7013 245.354 59.4958V65.1245H244.234V59.6896C244.234 59.3307 244.222 59.0626 244.198 58.8855C244.174 58.7037 244.121 58.5696 244.04 58.4835C243.958 58.3925 243.829 58.3471 243.652 58.3471C243.159 58.3471 242.719 58.6486 242.331 59.2517V65.1245H241.204V59.6896C241.204 59.3307 241.192 59.0626 241.168 58.8855C241.144 58.7037 241.091 58.5696 241.01 58.4835C240.929 58.3925 240.799 58.3471 240.622 58.3471C240.129 58.3471 239.689 58.6486 239.301 59.2517V65.1245H238.188V57.5645H239.136L239.208 58.4404C239.438 58.1102 239.682 57.8565 239.94 57.6794C240.199 57.4975 240.503 57.4066 240.852 57.4066C241.565 57.4066 242.022 57.7392 242.223 58.4045C242.448 58.079 242.69 57.8325 242.948 57.665C243.212 57.4927 243.525 57.4066 243.889 57.4066ZM250.901 57.4066C251.868 57.4066 252.564 57.7488 252.99 58.4332C253.421 59.1177 253.637 60.0869 253.637 61.3409C253.637 62.1211 253.529 62.8079 253.314 63.4014C253.098 63.9902 252.77 64.452 252.33 64.7871C251.894 65.1221 251.358 65.2896 250.722 65.2896C249.889 65.2896 249.224 64.9977 248.726 64.4137V68.0178L247.52 68.1686V57.5645H248.546L248.647 58.6199C248.924 58.2274 249.255 57.9283 249.638 57.7225C250.025 57.5119 250.447 57.4066 250.901 57.4066ZM250.614 58.3758C250.226 58.3758 249.872 58.4907 249.551 58.7204C249.236 58.9502 248.96 59.2397 248.726 59.5891V63.3368C248.927 63.6336 249.176 63.8657 249.472 64.0332C249.774 64.2008 250.102 64.2845 250.456 64.2845C251.088 64.2845 251.559 64.0428 251.87 63.5594C252.186 63.076 252.344 62.3341 252.344 61.3337C252.344 60.3382 252.203 59.5963 251.921 59.1081C251.638 58.6199 251.203 58.3758 250.614 58.3758ZM261.238 57.3994C261.434 57.3994 261.613 57.4137 261.776 57.4425C261.939 57.4664 262.116 57.5071 262.307 57.5645L262.135 60.1204H261.144V58.5122H261.08C260.496 58.5122 259.998 58.718 259.586 59.1296C259.175 59.5413 258.842 60.1635 258.588 60.9963V64.1984H260.125V65.1245H256.205V64.1984H257.382V58.4907H256.205V57.5645H258.301L258.524 59.3522C258.83 58.6965 259.194 58.2083 259.615 57.8876C260.041 57.5621 260.582 57.3994 261.238 57.3994ZM265.694 61.7717C265.713 62.3365 265.823 62.8079 266.024 63.1861C266.225 63.5594 266.488 63.837 266.814 64.0189C267.139 64.196 267.503 64.2845 267.905 64.2845C268.279 64.2845 268.621 64.2295 268.932 64.1194C269.248 64.0093 269.578 63.837 269.923 63.6025L270.49 64.3994C270.136 64.677 269.729 64.8948 269.269 65.0527C268.815 65.2107 268.355 65.2896 267.891 65.2896C267.168 65.2896 266.546 65.1269 266.024 64.8014C265.502 64.476 265.105 64.0165 264.832 63.423C264.564 62.8295 264.43 62.1402 264.43 61.3553C264.43 60.5943 264.567 59.9146 264.84 59.3163C265.112 58.718 265.498 58.2513 265.995 57.9163C266.493 57.5765 267.072 57.4066 267.733 57.4066C268.365 57.4066 268.91 57.5549 269.37 57.8517C269.834 58.1484 270.188 58.5768 270.432 59.1368C270.681 59.692 270.806 60.3502 270.806 61.1112C270.806 61.3313 270.796 61.5515 270.777 61.7717H265.694ZM267.747 58.3973C267.163 58.3973 266.687 58.6031 266.319 59.0148C265.955 59.4216 265.749 60.0295 265.701 60.8384H269.643C269.628 60.0438 269.454 59.4384 269.119 59.0219C268.784 58.6055 268.326 58.3973 267.747 58.3973ZM275.93 64.2917C276.509 64.2917 276.966 64.184 277.301 63.9686C277.641 63.7532 277.811 63.4613 277.811 63.0927C277.811 62.8438 277.765 62.6404 277.674 62.4825C277.588 62.3197 277.414 62.1713 277.15 62.0373C276.892 61.9033 276.502 61.7717 275.98 61.6425C275.401 61.4989 274.927 61.3433 274.558 61.1758C274.195 61.0035 273.91 60.7809 273.704 60.5081C273.503 60.2353 273.403 59.8883 273.403 59.4671C273.403 59.0507 273.522 58.6869 273.762 58.3758C274.001 58.0647 274.336 57.8254 274.767 57.6578C275.202 57.4903 275.705 57.4066 276.274 57.4066C276.844 57.4066 277.356 57.4831 277.811 57.6363C278.27 57.7847 278.672 57.9857 279.017 58.2394L278.486 59.0578C278.17 58.8425 277.837 58.6773 277.488 58.5625C277.143 58.4428 276.743 58.383 276.289 58.383C275.719 58.383 275.303 58.4715 275.04 58.6486C274.781 58.8209 274.652 59.0626 274.652 59.3737C274.652 59.5987 274.712 59.783 274.831 59.9266C274.956 60.0702 275.154 60.1994 275.427 60.3143C275.705 60.4243 276.116 60.5536 276.662 60.7019C277.208 60.8503 277.655 61.0155 278.005 61.1973C278.354 61.3792 278.627 61.6185 278.823 61.9153C279.019 62.2072 279.117 62.5806 279.117 63.0353C279.117 63.5474 278.969 63.9734 278.672 64.3132C278.376 64.6483 277.986 64.8948 277.502 65.0527C277.023 65.2107 276.499 65.2896 275.93 65.2896C274.743 65.2896 273.757 64.9498 272.972 64.2702L273.661 63.4732C273.967 63.7317 274.314 63.9327 274.702 64.0763C275.09 64.2199 275.499 64.2917 275.93 64.2917ZM287.386 63.4732C287.386 63.77 287.434 63.9902 287.53 64.1337C287.625 64.2725 287.783 64.3755 288.004 64.4425L287.709 65.2896C286.982 65.1939 286.52 64.8397 286.324 64.2271C286.056 64.5765 285.716 64.8421 285.304 65.024C284.897 65.2011 284.447 65.2896 283.954 65.2896C283.457 65.2896 283.023 65.1939 282.655 65.0025C282.286 64.811 282.004 64.5406 281.808 64.1912C281.611 63.837 281.513 63.4254 281.513 62.9563C281.513 62.1761 281.817 61.5778 282.425 61.1614C283.033 60.745 283.911 60.5368 285.06 60.5368H286.173V59.905C286.173 59.3785 286.02 58.998 285.713 58.7635C285.407 58.5242 284.959 58.4045 284.371 58.4045C283.801 58.4045 283.145 58.5337 282.404 58.7922L282.088 57.8804C282.93 57.5645 283.753 57.4066 284.557 57.4066C285.481 57.4066 286.182 57.6243 286.661 58.0599C287.144 58.4907 287.386 59.0866 287.386 59.8476V63.4732ZM284.263 64.3707C284.636 64.3707 284.991 64.2773 285.326 64.0907C285.665 63.8992 285.948 63.636 286.173 63.3009V61.3553H285.082C284.282 61.3553 283.703 61.4917 283.344 61.7645C282.985 62.0373 282.806 62.4298 282.806 62.9419C282.806 63.8944 283.291 64.3707 284.263 64.3707ZM299.271 58.7778H304.857V59.8189H299.271V58.7778ZM299.271 61.4989H304.857V62.5471H299.271V61.4989ZM224.53 76.7871C224.75 76.7871 224.949 76.8397 225.126 76.945C225.303 77.0455 225.442 77.1843 225.542 77.3614C225.648 77.5385 225.7 77.7324 225.7 77.943C225.7 78.1536 225.648 78.3498 225.542 78.5317C225.442 78.7088 225.303 78.85 225.126 78.9553C224.949 79.0606 224.75 79.1132 224.53 79.1132C224.315 79.1132 224.118 79.0606 223.941 78.9553C223.769 78.85 223.63 78.7088 223.525 78.5317C223.424 78.3498 223.374 78.1536 223.374 77.943C223.374 77.7324 223.424 77.5385 223.525 77.3614C223.63 77.1843 223.769 77.0455 223.941 76.945C224.118 76.8397 224.315 76.7871 224.53 76.7871ZM224.53 81.7481C224.75 81.7481 224.949 81.8008 225.126 81.9061C225.303 82.0066 225.442 82.1454 225.542 82.3225C225.648 82.4948 225.7 82.6862 225.7 82.8968C225.7 83.0835 225.679 83.2654 225.636 83.4425C225.593 83.6196 225.518 83.8182 225.413 84.0384L224.25 86.7091H223.159L223.848 83.8589C223.7 83.7584 223.582 83.6243 223.496 83.4568C223.415 83.2845 223.374 83.1002 223.374 82.904C223.374 82.6934 223.424 82.4996 223.525 82.3225C223.63 82.1454 223.769 82.0066 223.941 81.9061C224.118 81.8008 224.315 81.7481 224.53 81.7481Z"
            fill="white" />
        <path
            d="M318.623 58.2537H317.56L317.331 54.5204H318.845L318.623 58.2537ZM321.021 58.2537H319.958L319.743 54.5204H321.251L321.021 58.2537ZM330.61 65.1245L329.821 62.6045H325.908L325.118 65.1245H323.89L327.107 55.2384H328.701L331.917 65.1245H330.61ZM327.875 56.2866L326.231 61.5707H329.498L327.875 56.2866ZM337.034 57.4066C338.001 57.4066 338.697 57.7488 339.123 58.4332C339.554 59.1177 339.769 60.0869 339.769 61.3409C339.769 62.1211 339.662 62.8079 339.446 63.4014C339.231 63.9902 338.903 64.452 338.463 64.7871C338.027 65.1221 337.491 65.2896 336.855 65.2896C336.022 65.2896 335.356 64.9977 334.859 64.4137V68.0178L333.652 68.1686V57.5645H334.679L334.78 58.6199C335.057 58.2274 335.388 57.9283 335.77 57.7225C336.158 57.5119 336.579 57.4066 337.034 57.4066ZM336.747 58.3758C336.359 58.3758 336.005 58.4907 335.684 58.7204C335.368 58.9502 335.093 59.2397 334.859 59.5891V63.3368C335.06 63.6336 335.309 63.8657 335.605 64.0332C335.907 64.2008 336.235 64.2845 336.589 64.2845C337.221 64.2845 337.692 64.0428 338.003 63.5594C338.319 63.076 338.477 62.3341 338.477 61.3337C338.477 60.3382 338.336 59.5963 338.054 59.1081C337.771 58.6199 337.336 58.3758 336.747 58.3758ZM347.37 57.3994C347.567 57.3994 347.746 57.4137 347.909 57.4425C348.072 57.4664 348.249 57.5071 348.44 57.5645L348.268 60.1204H347.277V58.5122H347.212C346.629 58.5122 346.131 58.718 345.719 59.1296C345.307 59.5413 344.975 60.1635 344.721 60.9963V64.1984H346.258V65.1245H342.338V64.1984H343.515V58.4907H342.338V57.5645H344.434L344.657 59.3522C344.963 58.6965 345.327 58.2083 345.748 57.8876C346.174 57.5621 346.715 57.3994 347.37 57.3994ZM351.827 61.7717C351.846 62.3365 351.956 62.8079 352.157 63.1861C352.358 63.5594 352.621 63.837 352.947 64.0189C353.272 64.196 353.636 64.2845 354.038 64.2845C354.411 64.2845 354.754 64.2295 355.065 64.1194C355.381 64.0093 355.711 63.837 356.055 63.6025L356.623 64.3994C356.268 64.677 355.862 64.8948 355.402 65.0527C354.947 65.2107 354.488 65.2896 354.024 65.2896C353.301 65.2896 352.679 65.1269 352.157 64.8014C351.635 64.476 351.238 64.0165 350.965 63.423C350.697 62.8295 350.563 62.1402 350.563 61.3553C350.563 60.5943 350.7 59.9146 350.972 59.3163C351.245 58.718 351.631 58.2513 352.128 57.9163C352.626 57.5765 353.205 57.4066 353.866 57.4066C354.498 57.4066 355.043 57.5549 355.503 57.8517C355.967 58.1484 356.321 58.5768 356.565 59.1368C356.814 59.692 356.939 60.3502 356.939 61.1112C356.939 61.3313 356.929 61.5515 356.91 61.7717H351.827ZM353.88 58.3973C353.296 58.3973 352.82 58.6031 352.451 59.0148C352.088 59.4216 351.882 60.0295 351.834 60.8384H355.775C355.761 60.0438 355.586 59.4384 355.251 59.0219C354.916 58.6055 354.459 58.3973 353.88 58.3973ZM359.492 65.1245V57.5645H360.519L360.612 58.6127C360.914 58.2346 361.292 57.9402 361.747 57.7296C362.206 57.5143 362.661 57.4066 363.111 57.4066C363.834 57.4066 364.367 57.598 364.712 57.9809C365.061 58.3638 365.236 58.9143 365.236 59.6322V65.1245H364.03V60.5225C364.03 59.9577 363.999 59.5269 363.936 59.2302C363.879 58.9334 363.757 58.7132 363.57 58.5696C363.388 58.4261 363.111 58.3543 362.737 58.3543C362.331 58.3543 361.945 58.4811 361.582 58.7348C361.223 58.9837 360.928 59.278 360.698 59.6178V65.1245H359.492ZM372.629 54.3696L373.835 54.5204V65.1245H372.779L372.665 64.1266C372.387 64.519 372.066 64.811 371.703 65.0025C371.339 65.1939 370.944 65.2896 370.518 65.2896C369.561 65.2896 368.84 64.9378 368.357 64.2343C367.878 63.5307 367.639 62.571 367.639 61.3553C367.639 60.5943 367.756 59.9146 367.991 59.3163C368.23 58.718 368.572 58.2513 369.017 57.9163C369.467 57.5765 369.996 57.4066 370.604 57.4066C371.035 57.4066 371.415 57.4808 371.746 57.6291C372.081 57.7775 372.375 58.0001 372.629 58.2968V54.3696ZM370.92 58.3758C370.283 58.3758 369.795 58.6271 369.455 59.1296C369.12 59.6274 368.953 60.3693 368.953 61.3553C368.953 62.3317 369.106 63.0688 369.412 63.5666C369.723 64.0643 370.176 64.3132 370.769 64.3132C371.482 64.3132 372.102 63.916 372.629 63.1214V59.345C372.423 59.0387 372.172 58.8018 371.875 58.6343C371.583 58.4619 371.265 58.3758 370.92 58.3758ZM379.584 54.025C379.847 54.025 380.06 54.1064 380.222 54.2691C380.385 54.4271 380.467 54.6257 380.467 54.865C380.467 55.1139 380.385 55.3197 380.222 55.4825C380.06 55.6452 379.847 55.7266 379.584 55.7266C379.33 55.7266 379.122 55.6452 378.959 55.4825C378.796 55.3149 378.715 55.1091 378.715 54.865C378.715 54.6257 378.796 54.4271 378.959 54.2691C379.122 54.1064 379.33 54.025 379.584 54.025ZM377.078 57.5645H380.546V64.1696H382.678V65.1245H377.006V64.1696H379.339V58.5194H377.078V57.5645ZM391.004 58.4978L386.84 64.0978H391.047L390.889 65.1245H385.361V64.2127L389.554 58.6127H385.691V57.5645H391.004V58.4978ZM399.359 63.4732C399.359 63.77 399.407 63.9902 399.502 64.1337C399.598 64.2725 399.756 64.3755 399.976 64.4425L399.682 65.2896C398.954 65.1939 398.492 64.8397 398.296 64.2271C398.028 64.5765 397.688 64.8421 397.277 65.024C396.87 65.2011 396.42 65.2896 395.927 65.2896C395.429 65.2896 394.996 65.1939 394.628 65.0025C394.259 64.811 393.977 64.5406 393.78 64.1912C393.584 63.837 393.486 63.4254 393.486 62.9563C393.486 62.1761 393.79 61.5778 394.398 61.1614C395.006 60.745 395.884 60.5368 397.033 60.5368H398.145V59.905C398.145 59.3785 397.992 58.998 397.686 58.7635C397.38 58.5242 396.932 58.4045 396.343 58.4045C395.774 58.4045 395.118 58.5337 394.376 58.7922L394.06 57.8804C394.903 57.5645 395.726 57.4066 396.53 57.4066C397.454 57.4066 398.155 57.6243 398.634 58.0599C399.117 58.4907 399.359 59.0866 399.359 59.8476V63.4732ZM396.236 64.3707C396.609 64.3707 396.963 64.2773 397.298 64.0907C397.638 63.8992 397.92 63.636 398.145 63.3009V61.3553H397.054C396.255 61.3553 395.676 61.4917 395.317 61.7645C394.958 62.0373 394.778 62.4298 394.778 62.9419C394.778 63.8944 395.264 64.3707 396.236 64.3707ZM407.082 54.3696L408.288 54.5204V65.1245H407.233L407.118 64.1266C406.84 64.519 406.519 64.811 406.156 65.0025C405.792 65.1939 405.397 65.2896 404.971 65.2896C404.014 65.2896 403.293 64.9378 402.81 64.2343C402.331 63.5307 402.092 62.571 402.092 61.3553C402.092 60.5943 402.209 59.9146 402.444 59.3163C402.683 58.718 403.025 58.2513 403.471 57.9163C403.92 57.5765 404.449 57.4066 405.057 57.4066C405.488 57.4066 405.868 57.4808 406.199 57.6291C406.534 57.7775 406.828 58.0001 407.082 58.2968V54.3696ZM405.373 58.3758C404.737 58.3758 404.248 58.6271 403.908 59.1296C403.573 59.6274 403.406 60.3693 403.406 61.3553C403.406 62.3317 403.559 63.0688 403.865 63.5666C404.177 64.0643 404.629 64.3132 405.222 64.3132C405.935 64.3132 406.555 63.916 407.082 63.1214V59.345C406.876 59.0387 406.625 58.8018 406.328 58.6343C406.036 58.4619 405.718 58.3758 405.373 58.3758ZM414.051 57.4066C414.75 57.4066 415.341 57.5669 415.824 57.8876C416.308 58.2035 416.672 58.6582 416.916 59.2517C417.164 59.8404 417.289 60.5368 417.289 61.3409C417.289 62.1211 417.162 62.8079 416.908 63.4014C416.66 63.9949 416.291 64.4592 415.803 64.7943C415.315 65.1245 414.726 65.2896 414.037 65.2896C413.338 65.2896 412.744 65.1293 412.256 64.8086C411.773 64.4831 411.407 64.0261 411.158 63.4373C410.909 62.8486 410.784 62.1546 410.784 61.3553C410.784 60.5703 410.909 59.8811 411.158 59.2876C411.411 58.6941 411.782 58.2322 412.27 57.9019C412.763 57.5717 413.357 57.4066 414.051 57.4066ZM414.051 58.3902C413.395 58.3902 412.902 58.6343 412.572 59.1225C412.242 59.6059 412.077 60.3502 412.077 61.3553C412.077 62.3461 412.239 63.0855 412.565 63.5737C412.89 64.0572 413.381 64.2989 414.037 64.2989C414.692 64.2989 415.183 64.0572 415.508 63.5737C415.834 63.0855 415.997 62.3413 415.997 61.3409C415.997 60.3454 415.834 59.6059 415.508 59.1225C415.183 58.6343 414.697 58.3902 414.051 58.3902ZM430.969 64.2917C431.548 64.2917 432.005 64.184 432.34 63.9686C432.68 63.7532 432.85 63.4613 432.85 63.0927C432.85 62.8438 432.804 62.6404 432.713 62.4825C432.627 62.3197 432.453 62.1713 432.189 62.0373C431.931 61.9033 431.541 61.7717 431.019 61.6425C430.44 61.4989 429.966 61.3433 429.598 61.1758C429.234 61.0035 428.949 60.7809 428.743 60.5081C428.542 60.2353 428.442 59.8883 428.442 59.4671C428.442 59.0507 428.561 58.6869 428.801 58.3758C429.04 58.0647 429.375 57.8254 429.806 57.6578C430.241 57.4903 430.744 57.4066 431.313 57.4066C431.883 57.4066 432.395 57.4831 432.85 57.6363C433.309 57.7847 433.711 57.9857 434.056 58.2394L433.525 59.0578C433.209 58.8425 432.876 58.6773 432.527 58.5625C432.182 58.4428 431.783 58.383 431.328 58.383C430.758 58.383 430.342 58.4715 430.079 58.6486C429.82 58.8209 429.691 59.0626 429.691 59.3737C429.691 59.5987 429.751 59.783 429.87 59.9266C429.995 60.0702 430.193 60.1994 430.466 60.3143C430.744 60.4243 431.156 60.5536 431.701 60.7019C432.247 60.8503 432.694 61.0155 433.044 61.1973C433.393 61.3792 433.666 61.6185 433.862 61.9153C434.058 62.2072 434.157 62.5806 434.157 63.0353C434.157 63.5474 434.008 63.9734 433.711 64.3132C433.415 64.6483 433.025 64.8948 432.541 65.0527C432.063 65.2107 431.538 65.2896 430.969 65.2896C429.782 65.2896 428.796 64.9498 428.011 64.2702L428.7 63.4732C429.006 63.7317 429.353 63.9327 429.741 64.0763C430.129 64.2199 430.538 64.2917 430.969 64.2917ZM437.96 61.7717C437.979 62.3365 438.089 62.8079 438.29 63.1861C438.491 63.5594 438.754 63.837 439.08 64.0189C439.405 64.196 439.769 64.2845 440.171 64.2845C440.544 64.2845 440.886 64.2295 441.198 64.1194C441.513 64.0093 441.844 63.837 442.188 63.6025L442.755 64.3994C442.401 64.677 441.994 64.8948 441.535 65.0527C441.08 65.2107 440.621 65.2896 440.156 65.2896C439.434 65.2896 438.812 65.1269 438.29 64.8014C437.768 64.476 437.371 64.0165 437.098 63.423C436.83 62.8295 436.696 62.1402 436.696 61.3553C436.696 60.5943 436.832 59.9146 437.105 59.3163C437.378 58.718 437.763 58.2513 438.261 57.9163C438.759 57.5765 439.338 57.4066 439.999 57.4066C440.63 57.4066 441.176 57.5549 441.635 57.8517C442.1 58.1484 442.454 58.5768 442.698 59.1368C442.947 59.692 443.071 60.3502 443.071 61.1112C443.071 61.3313 443.062 61.5515 443.043 61.7717H437.96ZM440.013 58.3973C439.429 58.3973 438.953 58.6031 438.584 59.0148C438.22 59.4216 438.015 60.0295 437.967 60.8384H441.908C441.894 60.0438 441.719 59.4384 441.384 59.0219C441.049 58.6055 440.592 58.3973 440.013 58.3973ZM452.144 57.8948C451.847 57.9857 451.529 58.0455 451.189 58.0743C450.854 58.103 450.435 58.1173 449.933 58.1173C450.809 58.5194 451.247 59.1536 451.247 60.0199C451.247 60.5177 451.132 60.9628 450.902 61.3553C450.677 61.743 450.349 62.0469 449.918 62.2671C449.492 62.4825 448.988 62.5902 448.404 62.5902C448.155 62.5902 447.944 62.5806 447.772 62.5614C447.604 62.5375 447.439 62.4992 447.276 62.4466C447.162 62.5279 447.066 62.6356 446.989 62.7696C446.917 62.8989 446.882 63.0353 446.882 63.1789C446.882 63.3751 446.958 63.5307 447.111 63.6455C447.264 63.7556 447.525 63.8107 447.894 63.8107H449.258C449.756 63.8107 450.208 63.9016 450.615 64.0835C451.027 64.2606 451.347 64.5071 451.577 64.823C451.811 65.1341 451.929 65.4811 451.929 65.864C451.929 66.6059 451.615 67.1755 450.988 67.5727C450.361 67.97 449.471 68.1686 448.317 68.1686C447.523 68.1686 446.891 68.0872 446.422 67.9245C445.958 67.7618 445.625 67.5129 445.424 67.1778C445.223 66.8476 445.123 66.4192 445.123 65.8927H446.214C446.214 66.2038 446.271 66.4503 446.386 66.6322C446.506 66.8189 446.716 66.9577 447.018 67.0486C447.324 67.1396 447.755 67.185 448.31 67.185C449.134 67.185 449.739 67.0821 450.127 66.8763C450.514 66.6705 450.708 66.3594 450.708 65.943C450.708 65.5936 450.55 65.3255 450.234 65.1389C449.918 64.9522 449.507 64.8589 449 64.8589H447.65C447.233 64.8589 446.882 64.7943 446.594 64.665C446.307 64.5358 446.094 64.3635 445.955 64.1481C445.817 63.9327 445.747 63.6958 445.747 63.4373C445.747 63.1932 445.819 62.9563 445.963 62.7266C446.106 62.4968 446.312 62.2934 446.58 62.1163C446.144 61.8866 445.824 61.6018 445.618 61.2619C445.412 60.9221 445.309 60.5105 445.309 60.0271C445.309 59.5245 445.436 59.0746 445.69 58.6773C445.948 58.2753 446.305 57.9618 446.76 57.7368C447.219 57.5119 447.741 57.3994 448.325 57.3994C448.932 57.3994 449.435 57.3755 449.832 57.3276C450.23 57.2749 450.562 57.2055 450.83 57.1194C451.103 57.0332 451.417 56.9136 451.771 56.7604L452.144 57.8948ZM448.325 58.2825C447.736 58.2825 447.291 58.4404 446.989 58.7563C446.692 59.0722 446.544 59.4958 446.544 60.0271C446.544 60.5631 446.695 60.9915 446.996 61.3122C447.303 61.6281 447.755 61.7861 448.353 61.7861C448.88 61.7861 449.284 61.6329 449.567 61.3266C449.854 61.0155 449.997 60.5799 449.997 60.0199C449.997 59.4503 449.856 59.0196 449.574 58.7276C449.291 58.4308 448.875 58.2825 448.325 58.2825ZM455.445 62.9204C455.445 63.4134 455.545 63.7724 455.746 63.9973C455.952 64.2175 456.275 64.3276 456.715 64.3276C457.113 64.3276 457.498 64.2127 457.871 63.983C458.249 63.7532 458.546 63.4684 458.762 63.1286V57.5645H459.968V65.1245H458.941L458.84 64.105C458.549 64.4784 458.185 64.7703 457.749 64.9809C457.318 65.1867 456.876 65.2896 456.421 65.2896C455.698 65.2896 455.153 65.0982 454.784 64.7153C454.42 64.3276 454.238 63.7772 454.238 63.064V57.5645H455.445V62.9204ZM467.956 57.3994C468.153 57.3994 468.332 57.4137 468.495 57.4425C468.658 57.4664 468.835 57.5071 469.026 57.5645L468.854 60.1204H467.863V58.5122H467.798C467.214 58.5122 466.717 58.718 466.305 59.1296C465.893 59.5413 465.561 60.1635 465.307 60.9963V64.1984H466.844V65.1245H462.924V64.1984H464.101V58.4907H462.924V57.5645H465.02L465.242 59.3522C465.549 58.6965 465.913 58.2083 466.334 57.8876C466.76 57.5621 467.301 57.3994 467.956 57.3994ZM474.344 57.4066C475.043 57.4066 475.634 57.5669 476.117 57.8876C476.601 58.2035 476.964 58.6582 477.209 59.2517C477.457 59.8404 477.582 60.5368 477.582 61.3409C477.582 62.1211 477.455 62.8079 477.201 63.4014C476.953 63.9949 476.584 64.4592 476.096 64.7943C475.608 65.1245 475.019 65.2896 474.33 65.2896C473.631 65.2896 473.037 65.1293 472.549 64.8086C472.066 64.4831 471.7 64.0261 471.451 63.4373C471.202 62.8486 471.077 62.1546 471.077 61.3553C471.077 60.5703 471.202 59.8811 471.451 59.2876C471.704 58.6941 472.075 58.2322 472.563 57.9019C473.056 57.5717 473.65 57.4066 474.344 57.4066ZM474.344 58.3902C473.688 58.3902 473.195 58.6343 472.865 59.1225C472.535 59.6059 472.37 60.3502 472.37 61.3553C472.37 62.3461 472.532 63.0855 472.858 63.5737C473.183 64.0572 473.674 64.2989 474.33 64.2989C474.985 64.2989 475.476 64.0572 475.801 63.5737C476.127 63.0855 476.29 62.3413 476.29 61.3409C476.29 60.3454 476.127 59.6059 475.801 59.1225C475.476 58.6343 474.99 58.3902 474.344 58.3902ZM488.692 65.1245V57.5645H489.718L489.812 58.6127C490.113 58.2346 490.491 57.9402 490.946 57.7296C491.405 57.5143 491.86 57.4066 492.31 57.4066C493.033 57.4066 493.566 57.598 493.911 57.9809C494.26 58.3638 494.435 58.9143 494.435 59.6322V65.1245H493.229V60.5225C493.229 59.9577 493.198 59.5269 493.136 59.2302C493.078 58.9334 492.956 58.7132 492.769 58.5696C492.588 58.4261 492.31 58.3543 491.937 58.3543C491.53 58.3543 491.145 58.4811 490.781 58.7348C490.422 58.9837 490.127 59.278 489.898 59.6178V65.1245H488.692ZM502.718 63.4732C502.718 63.77 502.766 63.9902 502.862 64.1337C502.957 64.2725 503.115 64.3755 503.336 64.4425L503.041 65.2896C502.314 65.1939 501.852 64.8397 501.656 64.2271C501.388 64.5765 501.048 64.8421 500.636 65.024C500.229 65.2011 499.779 65.2896 499.286 65.2896C498.789 65.2896 498.355 65.1939 497.987 65.0025C497.618 64.811 497.336 64.5406 497.14 64.1912C496.943 63.837 496.845 63.4254 496.845 62.9563C496.845 62.1761 497.149 61.5778 497.757 61.1614C498.365 60.745 499.243 60.5368 500.392 60.5368H501.505V59.905C501.505 59.3785 501.352 58.998 501.045 58.7635C500.739 58.5242 500.291 58.4045 499.703 58.4045C499.133 58.4045 498.477 58.5337 497.736 58.7922L497.42 57.8804C498.262 57.5645 499.085 57.4066 499.889 57.4066C500.813 57.4066 501.514 57.6243 501.993 58.0599C502.476 58.4907 502.718 59.0866 502.718 59.8476V63.4732ZM499.595 64.3707C499.968 64.3707 500.323 64.2773 500.658 64.0907C500.997 63.8992 501.28 63.636 501.505 63.3009V61.3553H500.414C499.614 61.3553 499.035 61.4917 498.676 61.7645C498.317 62.0373 498.138 62.4298 498.138 62.9419C498.138 63.8944 498.623 64.3707 499.595 64.3707ZM515.479 61.7717C515.498 62.3365 515.608 62.8079 515.809 63.1861C516.01 63.5594 516.274 63.837 516.599 64.0189C516.925 64.196 517.288 64.2845 517.69 64.2845C518.064 64.2845 518.406 64.2295 518.717 64.1194C519.033 64.0093 519.363 63.837 519.708 63.6025L520.275 64.3994C519.921 64.677 519.514 64.8948 519.054 65.0527C518.6 65.2107 518.14 65.2896 517.676 65.2896C516.953 65.2896 516.331 65.1269 515.809 64.8014C515.288 64.476 514.89 64.0165 514.618 63.423C514.35 62.8295 514.215 62.1402 514.215 61.3553C514.215 60.5943 514.352 59.9146 514.625 59.3163C514.898 58.718 515.283 58.2513 515.781 57.9163C516.278 57.5765 516.858 57.4066 517.518 57.4066C518.15 57.4066 518.695 57.5549 519.155 57.8517C519.619 58.1484 519.973 58.5768 520.218 59.1368C520.466 59.692 520.591 60.3502 520.591 61.1112C520.591 61.3313 520.581 61.5515 520.562 61.7717H515.479ZM517.532 58.3973C516.948 58.3973 516.472 58.6031 516.104 59.0148C515.74 59.4216 515.534 60.0295 515.486 60.8384H519.428C519.413 60.0438 519.239 59.4384 518.904 59.0219C518.569 58.6055 518.112 58.3973 517.532 58.3973ZM528.249 57.3994C528.446 57.3994 528.625 57.4137 528.788 57.4425C528.95 57.4664 529.128 57.5071 529.319 57.5645L529.147 60.1204H528.156V58.5122H528.091C527.507 58.5122 527.01 58.718 526.598 59.1296C526.186 59.5413 525.854 60.1635 525.6 60.9963V64.1984H527.136V65.1245H523.216V64.1984H524.394V58.4907H523.216V57.5645H525.313L525.535 59.3522C525.842 58.6965 526.206 58.2083 526.627 57.8876C527.053 57.5621 527.594 57.3994 528.249 57.3994ZM537.171 63.4732C537.171 63.77 537.219 63.9902 537.315 64.1337C537.411 64.2725 537.569 64.3755 537.789 64.4425L537.494 65.2896C536.767 65.1939 536.305 64.8397 536.109 64.2271C535.841 64.5765 535.501 64.8421 535.089 65.024C534.682 65.2011 534.232 65.2896 533.739 65.2896C533.242 65.2896 532.809 65.1939 532.44 65.0025C532.071 64.811 531.789 64.5406 531.593 64.1912C531.397 63.837 531.298 63.4254 531.298 62.9563C531.298 62.1761 531.602 61.5778 532.21 61.1614C532.818 60.745 533.696 60.5368 534.845 60.5368H535.958V59.905C535.958 59.3785 535.805 58.998 535.498 58.7635C535.192 58.5242 534.745 58.4045 534.156 58.4045C533.586 58.4045 532.931 58.5337 532.189 58.7922L531.873 57.8804C532.715 57.5645 533.538 57.4066 534.343 57.4066C535.266 57.4066 535.968 57.6243 536.446 58.0599C536.93 58.4907 537.171 59.0866 537.171 59.8476V63.4732ZM534.048 64.3707C534.422 64.3707 534.776 64.2773 535.111 64.0907C535.451 63.8992 535.733 63.636 535.958 63.3009V61.3553H534.867C534.067 61.3553 533.488 61.4917 533.129 61.7645C532.77 62.0373 532.591 62.4298 532.591 62.9419C532.591 63.8944 533.077 64.3707 534.048 64.3707ZM148.683 73.3696L149.89 73.5204V84.1245H148.834L148.719 83.1266C148.442 83.519 148.121 83.811 147.757 84.0025C147.393 84.1939 146.999 84.2896 146.573 84.2896C145.615 84.2896 144.895 83.9378 144.412 83.2343C143.933 82.5307 143.694 81.571 143.694 80.3553C143.694 79.5943 143.811 78.9146 144.045 78.3163C144.285 77.718 144.627 77.2513 145.072 76.9163C145.522 76.5765 146.051 76.4066 146.659 76.4066C147.09 76.4066 147.47 76.4808 147.8 76.6291C148.135 76.7775 148.43 77.0001 148.683 77.2968V73.3696ZM146.975 77.3758C146.338 77.3758 145.85 77.6271 145.51 78.1296C145.175 78.6274 145.007 79.3693 145.007 80.3553C145.007 81.3317 145.161 82.0688 145.467 82.5666C145.778 83.0643 146.23 83.3132 146.824 83.3132C147.537 83.3132 148.157 82.916 148.683 82.1214V78.345C148.478 78.0387 148.226 77.8018 147.93 77.6343C147.638 77.4619 147.319 77.3758 146.975 77.3758ZM155.638 73.025C155.901 73.025 156.114 73.1064 156.277 73.2691C156.44 73.4271 156.521 73.6257 156.521 73.865C156.521 74.1139 156.44 74.3197 156.277 74.4825C156.114 74.6452 155.901 74.7266 155.638 74.7266C155.385 74.7266 155.176 74.6452 155.014 74.4825C154.851 74.3149 154.769 74.1091 154.769 73.865C154.769 73.6257 154.851 73.4271 155.014 73.2691C155.176 73.1064 155.385 73.025 155.638 73.025ZM153.133 76.5645H156.6V83.1696H158.733V84.1245H153.061V83.1696H155.394V77.5194H153.133V76.5645ZM167.906 76.8948C167.609 76.9857 167.291 77.0455 166.951 77.0743C166.616 77.103 166.197 77.1173 165.695 77.1173C166.57 77.5194 167.008 78.1536 167.008 79.0199C167.008 79.5177 166.894 79.9628 166.664 80.3553C166.439 80.743 166.111 81.0469 165.68 81.2671C165.254 81.4825 164.749 81.5902 164.165 81.5902C163.916 81.5902 163.706 81.5806 163.534 81.5614C163.366 81.5375 163.201 81.4992 163.038 81.4466C162.923 81.5279 162.828 81.6356 162.751 81.7696C162.679 81.8989 162.643 82.0353 162.643 82.1789C162.643 82.3751 162.72 82.5307 162.873 82.6455C163.026 82.7556 163.287 82.8107 163.656 82.8107H165.02C165.517 82.8107 165.97 82.9016 166.377 83.0835C166.788 83.2606 167.109 83.5071 167.339 83.823C167.573 84.1341 167.69 84.4811 167.69 84.864C167.69 85.6059 167.377 86.1755 166.75 86.5727C166.123 86.97 165.233 87.1686 164.079 87.1686C163.285 87.1686 162.653 87.0872 162.184 86.9245C161.72 86.7618 161.387 86.5129 161.186 86.1778C160.985 85.8476 160.884 85.4192 160.884 84.8927H161.976C161.976 85.2038 162.033 85.4503 162.148 85.6322C162.268 85.8189 162.478 85.9577 162.78 86.0486C163.086 86.1396 163.517 86.185 164.072 86.185C164.895 86.185 165.501 86.0821 165.888 85.8763C166.276 85.6705 166.47 85.3594 166.47 84.943C166.47 84.5936 166.312 84.3255 165.996 84.1389C165.68 83.9522 165.269 83.8589 164.761 83.8589H163.411C162.995 83.8589 162.643 83.7943 162.356 83.665C162.069 83.5358 161.856 83.3635 161.717 83.1481C161.578 82.9327 161.509 82.6958 161.509 82.4373C161.509 82.1932 161.581 81.9563 161.724 81.7266C161.868 81.4968 162.074 81.2934 162.342 81.1163C161.906 80.8866 161.585 80.6018 161.38 80.2619C161.174 79.9221 161.071 79.5105 161.071 79.0271C161.071 78.5245 161.198 78.0746 161.451 77.6773C161.71 77.2753 162.067 76.9618 162.521 76.7368C162.981 76.5119 163.502 76.3994 164.086 76.3994C164.694 76.3994 165.197 76.3755 165.594 76.3276C165.991 76.2749 166.324 76.2055 166.592 76.1194C166.865 76.0332 167.178 75.9136 167.533 75.7604L167.906 76.8948ZM164.086 77.2825C163.498 77.2825 163.053 77.4404 162.751 77.7563C162.454 78.0722 162.306 78.4958 162.306 79.0271C162.306 79.5631 162.457 79.9915 162.758 80.3122C163.064 80.6281 163.517 80.7861 164.115 80.7861C164.642 80.7861 165.046 80.6329 165.328 80.3266C165.616 80.0155 165.759 79.5799 165.759 79.0199C165.759 78.4503 165.618 78.0196 165.336 77.7276C165.053 77.4308 164.637 77.2825 164.086 77.2825ZM172.865 73.025C173.128 73.025 173.341 73.1064 173.504 73.2691C173.666 73.4271 173.748 73.6257 173.748 73.865C173.748 74.1139 173.666 74.3197 173.504 74.4825C173.341 74.6452 173.128 74.7266 172.865 74.7266C172.611 74.7266 172.403 74.6452 172.24 74.4825C172.077 74.3149 171.996 74.1091 171.996 73.865C171.996 73.6257 172.077 73.4271 172.24 73.2691C172.403 73.1064 172.611 73.025 172.865 73.025ZM170.359 76.5645H173.827V83.1696H175.959V84.1245H170.287V83.1696H172.621V77.5194H170.359V76.5645ZM184.615 83.744C184.362 83.9115 184.048 84.0431 183.675 84.1389C183.306 84.2394 182.945 84.2896 182.591 84.2896C182.06 84.2896 181.602 84.1939 181.22 84.0025C180.841 83.8062 180.552 83.5358 180.351 83.1912C180.15 82.8466 180.049 82.4517 180.049 82.0066V77.4978H178.312V76.5645H180.049V74.8486L181.255 74.705V76.5645H183.869L183.725 77.4978H181.255V81.9922C181.255 82.423 181.368 82.7461 181.593 82.9614C181.823 83.1768 182.191 83.2845 182.699 83.2845C183.211 83.2845 183.694 83.1649 184.149 82.9255L184.615 83.744ZM192.64 82.4732C192.64 82.77 192.688 82.9902 192.784 83.1337C192.879 83.2725 193.037 83.3755 193.257 83.4425L192.963 84.2896C192.236 84.1939 191.774 83.8397 191.577 83.2271C191.309 83.5765 190.97 83.8421 190.558 84.024C190.151 84.2011 189.701 84.2896 189.208 84.2896C188.71 84.2896 188.277 84.1939 187.909 84.0025C187.54 83.811 187.258 83.5406 187.062 83.1912C186.865 82.837 186.767 82.4254 186.767 81.9563C186.767 81.1761 187.071 80.5778 187.679 80.1614C188.287 79.745 189.165 79.5368 190.314 79.5368H191.427V78.905C191.427 78.3785 191.274 77.998 190.967 77.7635C190.661 77.5242 190.213 77.4045 189.625 77.4045C189.055 77.4045 188.399 77.5337 187.657 77.7922L187.342 76.8804C188.184 76.5645 189.007 76.4066 189.811 76.4066C190.735 76.4066 191.436 76.6243 191.915 77.0599C192.398 77.4907 192.64 78.0866 192.64 78.8476V82.4732ZM189.517 83.3707C189.89 83.3707 190.244 83.2773 190.58 83.0907C190.919 82.8992 191.202 82.636 191.427 82.3009V80.3553H190.335C189.536 80.3553 188.957 80.4917 188.598 80.7645C188.239 81.0373 188.06 81.4298 188.06 81.9419C188.06 82.8944 188.545 83.3707 189.517 83.3707ZM198.784 82.2578C198.784 82.612 198.894 82.8729 199.114 83.0404C199.339 83.2031 199.645 83.2845 200.033 83.2845C200.44 83.2845 200.863 83.196 201.304 83.0189L201.627 83.9019C201.397 84.0168 201.129 84.1102 200.823 84.1819C200.516 84.2537 200.186 84.2896 199.832 84.2896C199.387 84.2896 198.992 84.2059 198.647 84.0384C198.307 83.8708 198.044 83.6291 197.857 83.3132C197.671 82.9973 197.577 82.624 197.577 82.1932V74.4753H195.258V73.5204H198.784V82.2578ZM206.607 74.2384H207.957L207.835 80.865H206.751L206.607 74.2384ZM207.304 82.3655C207.485 82.3655 207.651 82.4086 207.799 82.4948C207.947 82.5809 208.062 82.6982 208.144 82.8466C208.23 82.9902 208.273 83.1481 208.273 83.3204C208.273 83.4975 208.23 83.6602 208.144 83.8086C208.062 83.957 207.947 84.0743 207.799 84.1604C207.651 84.2466 207.485 84.2896 207.304 84.2896C207.126 84.2896 206.964 84.2466 206.815 84.1604C206.672 84.0743 206.557 83.957 206.471 83.8086C206.389 83.6602 206.349 83.4975 206.349 83.3204C206.349 83.1481 206.389 82.9902 206.471 82.8466C206.557 82.6982 206.672 82.5809 206.815 82.4948C206.964 82.4086 207.126 82.3655 207.304 82.3655ZM215.263 77.2537H214.201L213.971 73.5204H215.486L215.263 77.2537ZM217.661 77.2537H216.599L216.383 73.5204H217.891L217.661 77.2537Z"
            fill="#C690C5" />
    </g>
    <rect x="95.7172" y="91.4994" width="120" height="120" rx="20" transform="rotate(-30.7609 95.7172 91.4994)"
        fill="url(#paint1_linear_132_300)" fill-opacity="0.7" />
    <rect x="115.842" y="53.8473" width="119" height="122" rx="20" fill="url(#paint2_linear_132_300)"
        fill-opacity="0.7" />
    <defs>
        <filter id="filter0_d_132_300" x="0.717224" y="140.125" width="354" height="79" filterUnits="userSpaceOnUse"
            color-interpolation-filters="sRGB">
            <feFlood flood-opacity="0" result="BackgroundImageFix" />
            <feColorMatrix in="SourceAlpha" type="matrix" values="0 0 0 0 0 0 0 0 0 0 0 0 0 0 0 0 0 0 127 0"
                result="hardAlpha" />
            <feOffset dy="4" />
            <feGaussianBlur stdDeviation="2" />
            <feComposite in2="hardAlpha" operator="out" />
            <feColorMatrix type="matrix" values="0 0 0 0 0 0 0 0 0 0 0 0 0 0 0 0 0 0 0.25 0" />
            <feBlend mode="normal" in2="BackgroundImageFix" result="effect1_dropShadow_132_300" />
            <feBlend mode="normal" in="SourceGraphic" in2="effect1_dropShadow_132_300" result="shape" />
        </filter>
        <filter id="filter1_d_132_300" x="80.7172" y="0.124512" width="503" height="122" filterUnits="userSpaceOnUse"
            color-interpolation-filters="sRGB">
            <feFlood flood-opacity="0" result="BackgroundImageFix" />
            <feColorMatrix in="SourceAlpha" type="matrix" values="0 0 0 0 0 0 0 0 0 0 0 0 0 0 0 0 0 0 127 0"
                result="hardAlpha" />
            <feOffset dy="4" />
            <feGaussianBlur stdDeviation="2" />
            <feComposite in2="hardAlpha" operator="out" />
            <feColorMatrix type="matrix" values="0 0 0 0 0 0 0 0 0 0 0 0 0 0 0 0 0 0 0.25 0" />
            <feBlend mode="normal" in2="BackgroundImageFix" result="effect1_dropShadow_132_300" />
            <feBlend mode="normal" in="SourceGraphic" in2="effect1_dropShadow_132_300" result="shape" />
        </filter>
        <linearGradient id="paint0_linear_132_300" x1="24.7172" y1="189.772" x2="159.717" y2="189.772"
            gradientUnits="userSpaceOnUse">
            <stop stop-color="#05D59F" />
            <stop offset="0.489483" stop-color="#05D59F" />
            <stop offset="1" stop-color="#01AAE9" />
        </linearGradient>
        <linearGradient id="paint1_linear_132_300" x1="217.765" y1="92.7181" x2="102.092" y2="214.721"
            gradientUnits="userSpaceOnUse">
            <stop stop-color="#019E52" />
            <stop offset="1" stop-color="#207A6D" />
        </linearGradient>
        <linearGradient id="paint2_linear_132_300" x1="175.342" y1="175.847" x2="175.342" y2="53.8473"
            gradientUnits="userSpaceOnUse">
            <stop stop-color="#2BB970" />
            <stop offset="1" stop-color="#2BB970" />
        </linearGradient>
    </defs>
</svg>