<svg width="86" height="50" viewBox="0 0 86 50" fill="none" xmlns="http://www.w3.org/2000/svg">
<g clip-path="url(#clip0_111_4)">
<path d="M27.9511 44.3229H24.4325V30.3848H27.9511V44.3229Z" fill="#8E94C2"/>
<mask id="mask0_111_4" style="mask-type:luminance" maskUnits="userSpaceOnUse" x="0" y="0" width="86" height="50">
<path d="M0 49.5344H86.0001V0.558802H0V49.5344Z" fill="white"/>
</mask>
<g mask="url(#mask0_111_4)">
<path d="M56.3225 34.3787C56.1776 34.3052 55.0453 33.6345 53.3623 33.6345C51.0876 33.6345 49.5094 35.2165 49.5094 37.3521C49.5094 39.4232 51.0196 41.0732 53.3623 41.0732C55.0163 41.0732 56.1676 40.4159 56.3225 40.3334V44.0744C55.8812 44.197 54.6786 44.5702 53.116 44.5702C49.1583 44.5702 45.6844 41.843 45.6844 37.3511C45.6844 33.19 48.8273 30.1374 53.116 30.1374C54.7655 30.1374 55.9893 30.5385 56.3225 30.6377V34.3787ZM19.5956 34.3787C19.454 34.3052 18.3228 33.6345 16.6399 33.6345C14.3607 33.6345 12.7836 35.2165 12.7836 37.3521C12.7836 39.4232 14.2949 41.0732 16.6399 41.0732C18.2938 41.0732 19.444 40.4159 19.5956 40.3334V44.0744C19.1587 44.197 17.9572 44.5702 16.3857 44.5702C12.4314 44.5702 8.9619 41.843 8.9619 37.3511C8.9619 33.19 12.1049 30.1374 16.3869 30.1374C18.043 30.1374 19.2646 30.5385 19.5956 30.6377V34.3787ZM67.3908 33.6869C65.3033 33.6869 63.753 35.329 63.753 37.3521C63.753 39.3797 65.3033 41.0208 67.3908 41.0208C69.4761 41.0208 71.0309 39.3797 71.0309 37.3521C71.0309 35.329 69.4761 33.6869 67.3908 33.6869ZM74.759 37.3521C74.759 41.3394 71.6795 44.5702 67.392 44.5702C63.1021 44.5702 60.0272 41.3394 60.0272 37.3511C60.0272 33.3716 63.1033 30.1374 67.3908 30.1374C71.6795 30.1374 74.759 33.3716 74.759 37.3521ZM41.2943 33.5532C41.2419 33.5365 39.7607 33.1276 38.5436 33.1276C37.1337 33.1276 36.3669 33.6 36.3669 34.2695C36.3669 35.1185 37.4012 35.4148 37.9797 35.5975L38.9504 35.9061C41.2352 36.6325 42.275 38.1955 42.275 39.8933C42.275 43.3949 39.1945 44.5713 36.5018 44.5713C34.6305 44.5713 32.8774 44.2259 32.7046 44.1903V40.9818C33.0145 41.0598 34.4901 41.5009 36.027 41.5009C37.7779 41.5009 38.5826 40.9885 38.5826 40.1997C38.5826 39.4934 37.886 39.0856 37.0134 38.8116C36.8016 38.7403 36.4806 38.64 36.2622 38.5687C34.3028 37.9493 32.669 36.7973 32.669 34.4912C32.669 31.8843 34.6216 30.1341 37.8649 30.1341C39.5779 30.1341 41.1895 30.5496 41.2943 30.5775V33.552V33.5532Z" fill="#8E94C2"/>
<path d="M5.23047 15.406C5.23047 14.4457 4.44585 13.6669 3.48401 13.6669C2.52218 13.6669 1.73643 14.4457 1.73643 15.4049V19.0646C1.74795 19.5202 1.93706 19.9532 2.26343 20.2713C2.58981 20.5894 3.02761 20.7674 3.48346 20.7674C3.9393 20.7674 4.3771 20.5894 4.70347 20.2713C5.02985 19.9532 5.21896 19.5202 5.23047 19.0646V15.406ZM14.8254 10.6044C14.8254 10.1413 14.6414 9.69707 14.3137 9.36957C13.9861 9.04208 13.5417 8.85809 13.0784 8.85809C12.6151 8.85809 12.1707 9.04208 11.8431 9.36957C11.5154 9.69707 11.3314 10.1413 11.3314 10.6044V19.0646C11.3314 19.5278 11.5154 19.972 11.8431 20.2995C12.1707 20.627 12.6151 20.811 13.0784 20.811C13.5417 20.811 13.9861 20.627 14.3137 20.2995C14.6414 19.972 14.8254 19.5278 14.8254 19.0646V10.6032V10.6044ZM24.4215 4.03361C24.4215 3.07328 23.6368 2.29342 22.675 2.29342C21.7121 2.29342 20.9274 3.07328 20.9274 4.03361V22.5416C20.9389 22.9971 21.1281 23.4301 21.4544 23.7482C21.7808 24.0663 22.2186 24.2444 22.6745 24.2444C23.1303 24.2444 23.5681 24.0663 23.8945 23.7482C24.2208 23.4301 24.41 22.9971 24.4215 22.5416V4.03361ZM34.0164 10.6044C34.0164 10.1413 33.8324 9.69707 33.5047 9.36957C33.1771 9.04208 32.7327 8.85809 32.2694 8.85809C31.8061 8.85809 31.3617 9.04208 31.0341 9.36957C30.7064 9.69707 30.5224 10.1413 30.5224 10.6044V19.0646C30.5224 19.5278 30.7064 19.972 31.0341 20.2995C31.3617 20.627 31.8061 20.811 32.2694 20.811C32.7327 20.811 33.1771 20.627 33.5047 20.2995C33.8324 19.972 34.0164 19.5278 34.0164 19.0646V10.6032V10.6044ZM43.6013 15.406C43.6016 14.9453 43.4189 14.5033 43.0933 14.1772C42.7677 13.8511 42.3258 13.6675 41.8649 13.6669C41.403 13.6666 40.9598 13.8495 40.6324 14.1752C40.305 14.501 40.1202 14.9431 40.1184 15.4049V19.0646C40.1184 19.5263 40.3019 19.9691 40.6285 20.2955C40.9551 20.622 41.398 20.8054 41.8599 20.8054C42.3217 20.8054 42.7647 20.622 43.0913 20.2955C43.4178 19.9691 43.6013 19.5263 43.6013 19.0646V15.406ZM53.2007 10.6044C53.1892 10.1504 53.0007 9.71874 52.6754 9.40167C52.3501 9.08459 51.9137 8.90712 51.4593 8.90712C51.0049 8.90712 50.5685 9.08459 50.2432 9.40167C49.9178 9.71874 49.7293 10.1504 49.7178 10.6044V19.0646C49.7178 19.5263 49.9013 19.9691 50.2279 20.2955C50.5545 20.622 50.9974 20.8054 51.4593 20.8054C51.9211 20.8054 52.3641 20.622 52.6907 20.2955C53.0172 19.9691 53.2007 19.5263 53.2007 19.0646V10.6032V10.6044ZM62.8024 4.03361C62.8024 3.57194 62.6189 3.12917 62.2923 2.80272C61.9657 2.47627 61.5228 2.29288 61.0609 2.29288C60.599 2.29288 60.1561 2.47627 59.8295 2.80272C59.5029 3.12917 59.3195 3.57194 59.3195 4.03361V22.5416C59.3092 22.7766 59.3466 23.0113 59.4294 23.2315C59.5123 23.4516 59.6389 23.6528 59.8016 23.8227C59.9644 23.9926 60.1598 24.1279 60.3763 24.2203C60.5927 24.3127 60.8256 24.3604 61.0609 24.3604C61.2962 24.3604 61.5291 24.3127 61.7456 24.2203C61.962 24.1279 62.1575 23.9926 62.3202 23.8227C62.4829 23.6528 62.6095 23.4516 62.6924 23.2315C62.7752 23.0113 62.8127 22.7766 62.8024 22.5416V4.03361ZM72.4018 10.6044C72.4018 9.64296 71.6227 8.86197 70.6386 8.86197C70.1768 8.86227 69.734 9.04584 69.4075 9.37236C69.0811 9.69888 68.8977 10.1416 68.8977 10.6032V19.0646C68.8977 20.0305 69.6779 20.8093 70.6386 20.8093C71.6227 20.8093 72.4018 20.0305 72.4018 19.0646V10.6032V10.6044ZM81.9833 15.406C81.9833 14.9439 81.7997 14.5007 81.4728 14.1739C81.1459 13.8472 80.7025 13.6636 80.2402 13.6636C79.7779 13.6636 79.3345 13.8472 79.0076 14.1739C78.6807 14.5007 78.4971 14.9439 78.4971 15.406V19.0646C78.4971 20.0305 79.2784 20.8103 80.2402 20.8103C81.2009 20.8103 81.9822 20.0305 81.9822 19.0646V15.406H81.9833Z" fill="#E7005E"/>
<path d="M79.9694 42.4869V42.7053H79.3475V44.3218H79.0911V42.7064H78.467V42.4869H79.9694ZM80.0998 42.4869H80.4999L81.0494 43.9921H81.0583L81.5899 42.488H81.9822V44.3218H81.7203V42.8178H81.7114L81.1541 44.3218H80.9123L80.3684 42.8178H80.3561V44.3218H80.0998V42.4869Z" fill="#8E94C2"/>
</g>
</g>
<defs>
<clipPath id="clip0_111_4">
<rect width="86" height="49" fill="white" transform="translate(0 0.546875)"/>
</clipPath>
</defs>
</svg>
