<svg width="140" height="48" viewBox="0 0 140 48" fill="none" xmlns="http://www.w3.org/2000/svg">
<g clip-path="url(#clip0_111_14)">
<path d="M118.683 30.221L119.025 29.0435C119.433 27.6427 119.281 26.3478 118.597 25.3964C117.968 24.5201 116.919 24.004 115.645 23.9441L91.5181 23.6401C91.4433 23.6387 91.3698 23.6197 91.3037 23.5847C91.2374 23.5498 91.1807 23.4998 91.1374 23.4389C91.0953 23.376 91.0684 23.3041 91.0588 23.229C91.0495 23.1539 91.0579 23.0776 91.0833 23.0062C91.1246 22.8886 91.1998 22.7855 91.2993 22.7099C91.3991 22.6343 91.5186 22.5893 91.6437 22.5806L115.994 22.2733C118.883 22.1414 122.01 19.8097 123.105 16.9663L124.494 13.3565C124.551 13.2038 124.564 13.0384 124.531 12.8789C122.955 5.82312 116.625 0.546875 109.057 0.546875C102.084 0.546875 96.163 5.02426 94.0393 11.2476C92.6042 10.176 90.8149 9.68335 89.0302 9.86834C85.6849 10.1988 82.9951 12.8783 82.6639 16.2069C82.5791 17.038 82.6412 17.8776 82.8479 18.6873C77.383 18.8458 73.0005 23.2999 73.0005 28.7751C73.0012 29.2639 73.0374 29.7519 73.1091 30.2356C73.1249 30.3472 73.1805 30.4495 73.2658 30.5238C73.3512 30.5982 73.4607 30.6394 73.574 30.6401L118.117 30.6456C118.121 30.6459 118.125 30.6459 118.129 30.6456C118.255 30.6433 118.377 30.6009 118.477 30.5245C118.577 30.4479 118.649 30.3416 118.683 30.221Z" fill="#E7005E"/>
<path d="M126.721 13.6182C126.497 13.6182 126.274 13.6238 126.053 13.6349C126.017 13.6375 125.982 13.6451 125.948 13.6577C125.89 13.6774 125.837 13.7109 125.795 13.7553C125.753 13.7997 125.722 13.8536 125.705 13.9124L124.757 17.1723C124.349 18.5731 124.5 19.8669 125.185 20.8183C125.814 21.6956 126.863 22.2105 128.137 22.2706L133.28 22.5778C133.352 22.5802 133.423 22.5993 133.487 22.6336C133.55 22.668 133.605 22.7167 133.646 22.7758C133.689 22.839 133.716 22.9114 133.726 22.987C133.735 23.0626 133.727 23.1394 133.701 23.2111C133.659 23.3286 133.584 23.4314 133.485 23.507C133.386 23.5826 133.266 23.6278 133.141 23.6368L127.797 23.944C124.896 24.0771 121.769 26.4077 120.675 29.2511L120.289 30.255C120.273 30.2969 120.267 30.342 120.272 30.3867C120.277 30.4314 120.292 30.4745 120.317 30.512C120.342 30.5495 120.375 30.5807 120.414 30.603C120.453 30.625 120.498 30.6377 120.543 30.6396C120.548 30.6396 120.552 30.6396 120.557 30.6396H138.946C139.053 30.6405 139.157 30.6067 139.243 30.543C139.328 30.4793 139.391 30.3897 139.42 30.2874C139.746 29.1309 139.911 27.9355 139.91 26.7344C139.908 19.491 134.003 13.6182 126.721 13.6182Z" fill="#C55180"/>
<path d="M15.572 36.0608H18.7091V44.5865H24.1912V47.3209H15.572V36.0608Z" fill="#8E94C2"/>
<path d="M27.4402 41.7232V41.6912C27.4402 38.4579 30.0598 35.8352 33.5526 35.8352C37.0453 35.8352 39.6321 38.4255 39.6321 41.6588V41.6912C39.6321 44.9245 37.0121 47.5456 33.5205 47.5456C30.0288 47.5456 27.4402 44.9564 27.4402 41.7232ZM36.4302 41.7232V41.6912C36.4302 40.0687 35.2505 38.6503 33.5205 38.6503C31.8063 38.6503 30.6579 40.0339 30.6579 41.6588V41.6912C30.6579 43.314 31.8384 44.7316 33.5526 44.7316C35.2826 44.7316 36.4302 43.348 36.4302 41.7232Z" fill="#8E94C2"/>
<path d="M43.4716 42.3826V36.0603H46.6572V42.3187C46.6572 43.9413 47.4821 44.7152 48.7428 44.7152C50.0037 44.7152 50.8284 43.9755 50.8284 42.3988V36.0603H54.0144V42.3004C54.0144 45.9361 51.9288 47.5278 48.7107 47.5278C45.4926 47.5278 43.4716 45.9053 43.4716 42.381" fill="#8E94C2"/>
<path d="M58.8153 36.0613H63.1812C67.2242 36.0613 69.5686 38.3775 69.5686 41.6265V41.6594C69.5686 44.9079 67.1916 47.3214 63.117 47.3214H58.8153V36.0613ZM63.2302 44.5532C65.1065 44.5532 66.3505 43.5255 66.3505 41.7054V41.6735C66.3505 39.8724 65.1065 38.8264 63.2302 38.8264H61.9526V44.5542L63.2302 44.5532Z" fill="#8E94C2"/>
<path d="M74.1279 36.0608H83.1828V38.7961H77.2651V40.7096H82.6172V43.2993H77.2651V47.3209H74.1279V36.0608Z" fill="#8E94C2"/>
<path d="M87.5481 36.0608H90.6851V44.5865H96.1672V47.3209H87.5481V36.0608Z" fill="#8E94C2"/>
<path d="M104.365 35.9802H107.387L112.207 47.3209H108.843L108.018 45.3098H103.652L102.844 47.3209H99.5453L104.365 35.9802ZM107.113 42.8814L105.852 39.6798L104.574 42.8814H107.113Z" fill="#8E94C2"/>
<path d="M116.248 36.0603H121.6C123.331 36.0603 124.527 36.5113 125.287 37.2832C125.95 37.9269 126.29 38.7976 126.29 39.906V39.9377C126.29 41.6584 125.365 42.8008 123.961 43.3955L126.662 47.3213H123.038L120.759 43.9105H119.385V47.3213H116.248V36.0603ZM121.455 41.4658C122.522 41.4658 123.137 40.9508 123.137 40.1303V40.0984C123.137 39.2135 122.49 38.7636 121.438 38.7636H119.385V41.4679L121.455 41.4658Z" fill="#8E94C2"/>
<path d="M130.816 36.0608H139.919V38.7155H133.921V40.4198H139.354V42.8813H133.921V44.6671H140V47.3209H130.816V36.0608Z" fill="#8E94C2"/>
<path d="M8.70349 43.0429C8.26419 44.0311 7.33988 44.731 6.11167 44.731C4.39686 44.731 3.21705 43.3154 3.21705 41.6908V41.6584C3.21705 40.0356 4.36479 38.6499 6.07907 38.6499C7.37142 38.6499 8.35551 39.4408 8.77091 40.5165H12.0777C11.5481 37.8365 9.18084 35.8357 6.11167 35.8357C2.61844 35.8357 0 38.4601 0 41.6908V41.7227C0 44.956 2.58637 47.5468 6.07907 47.5468C9.06667 47.5468 11.4018 45.6223 12.0179 43.0434L8.70349 43.0429Z" fill="#8E94C2"/>
</g>
<defs>
<clipPath id="clip0_111_14">
<rect width="140" height="47" fill="white" transform="translate(0 0.546875)"/>
</clipPath>
</defs>
</svg>
