<svg width="219" height="42" viewBox="0 0 219 42" fill="none" xmlns="http://www.w3.org/2000/svg">
<path fill-rule="evenodd" clip-rule="evenodd" d="M34.8375 20.7485V20.3552L31.5461 17.4877H31.1626C30.2575 18.4999 28.8599 19.2584 27.2965 19.2584C24.8559 19.2584 22.9355 17.375 22.9355 14.7894C22.9355 12.2039 24.8559 10.3204 27.2965 10.3204C28.8599 10.3204 30.2575 11.0789 31.1626 12.0911H31.5461L34.8375 9.22367V8.83033C33.1095 6.69448 30.3954 5.31714 27.3231 5.31714C21.6747 5.31714 17.3972 9.36461 17.3972 14.7894C17.3972 14.9995 17.4441 15.193 17.458 15.3993C19.7695 16.9906 21.8101 18.2642 23.5672 19.4301C26.1003 21.0522 28.1447 22.5448 29.8283 23.9324C31.9272 23.3956 33.6285 22.2309 34.8375 20.7485ZM19.4568 20.6473C20.7759 22.2873 22.638 23.4635 24.8344 23.9657C23.3507 23.1214 21.9139 22.2924 20.5759 21.375C20.1835 21.129 19.8341 20.8907 19.4568 20.6473Z" fill="#8F93C4"/>
<path fill-rule="evenodd" clip-rule="evenodd" d="M53.8892 23.0546L53.0663 19.4569L52.7651 19.2596C52.6005 19.3441 52.4638 19.4569 52.0524 19.4569C51.4207 19.4569 51.0371 18.7817 50.708 18.2487C50.1598 17.4043 49.7206 16.9546 49.337 16.7586C51.3384 15.8591 52.6828 14.173 52.6828 11.7553C52.6828 8.01662 50.1598 5.65527 45.471 5.65527H37.2983V23.9259H42.7278V17.5171H43.2215C44.4279 17.5171 45.9647 20.159 46.6774 21.3403C48.1585 23.7299 49.337 24.2629 51.4485 24.2629C52.4359 24.2629 53.2588 23.8977 53.7525 23.448L53.8892 23.0546ZM47.1432 12.0641C47.1432 13.2736 46.2659 13.863 45.2507 13.863H42.7278V10.1525H45.2507C46.2659 10.1525 47.1432 10.8277 47.1432 12.0641Z" fill="#8F93C4"/>
<path fill-rule="evenodd" clip-rule="evenodd" d="M74.8651 14.7958C74.8651 9.37095 70.5876 5.32349 64.9114 5.32349C59.2338 5.32349 54.9564 9.37095 54.9564 14.7958C54.9564 20.2206 59.2338 24.268 64.9114 24.268C70.5876 24.268 74.8651 20.1924 74.8651 14.7958ZM69.3255 14.7958C69.3255 17.4095 67.3507 19.2648 64.9114 19.2648C62.4707 19.2648 60.4959 17.4095 60.4959 14.7958C60.4959 12.182 62.4707 10.3268 64.9114 10.3268C67.3507 10.3268 69.3255 12.182 69.3255 14.7958Z" fill="#8F93C4"/>
<path fill-rule="evenodd" clip-rule="evenodd" d="M86.967 5.66064L83.5871 15.7172L80.3844 5.66064H75.1942L74.9537 6.08218L81.587 23.93H84.8783L88.6127 13.9747L92.3597 23.93H95.6511L102.297 6.08218L102.044 5.66064H96.8663L93.651 15.7812L90.2584 5.66064H86.967Z" fill="#8F93C4"/>
<path fill-rule="evenodd" clip-rule="evenodd" d="M122.172 14.769C122.172 9.31599 118.579 5.66187 112.738 5.66187H104.429V23.9325H112.738C118.579 23.9325 122.172 20.2784 122.172 14.769ZM116.632 14.7972C116.632 17.7761 114.904 19.4353 112.519 19.4353H109.858V10.1591H112.519C114.904 10.1591 116.632 11.8183 116.632 14.7972Z" fill="#8F93C4"/>
<path fill-rule="evenodd" clip-rule="evenodd" d="M140.135 10.1578H145.451V23.93H150.895V10.1578H156.338V5.66064H140.135V10.1578Z" fill="#8F93C4"/>
<path fill-rule="evenodd" clip-rule="evenodd" d="M173.681 11.7592C173.681 8.02052 171.158 5.65918 166.469 5.65918H158.297V23.9298H163.727V17.521H165.016L168.388 23.9298H173.791L174.038 23.5083L170.417 16.7343C172.364 15.8067 173.681 14.1487 173.681 11.7592ZM168.141 12.068C168.141 13.2775 167.264 13.8669 166.249 13.8669H163.727V10.1564H166.249C167.264 10.1564 168.141 10.8316 168.141 12.068Z" fill="#8F93C4"/>
<path fill-rule="evenodd" clip-rule="evenodd" d="M176.972 23.93H182.416V5.66064H176.972V23.93Z" fill="#8F93C4"/>
<path fill-rule="evenodd" clip-rule="evenodd" d="M191.277 12.154V5.66064H185.833V23.93H191.277V18.3053L192.29 17.1266L196.847 23.93H202.543L202.796 23.5072L196.214 13.8337L202.29 6.08218L202.164 5.66064H196.34L191.277 12.154Z" fill="#8F93C4"/>
<path fill-rule="evenodd" clip-rule="evenodd" d="M209.759 19.4326V16.9086H215.962V12.6868H209.759V10.1576H217.861V5.65918H204.316V23.9298H217.987V19.4326H209.759Z" fill="#8F93C4"/>
<path fill-rule="evenodd" clip-rule="evenodd" d="M131.4 24.1434C135.377 24.1434 138.83 22.1767 138.83 18.3842C138.83 14.2509 135.35 13.1823 132.279 12.2829C131.071 11.9177 129.835 11.4949 129.835 10.5955C129.835 9.94845 130.521 9.5551 131.565 9.5551C133.348 9.5551 134.856 10.68 135.623 11.4116H136.007L138.556 8.31998V7.92663C137.213 6.38145 134.472 5.20142 131.454 5.20142C127.231 5.20142 124.3 7.5051 124.3 10.8492C124.3 14.4482 127.533 16.0229 130.275 16.8095C132.058 17.3156 133.267 17.4002 133.267 18.3842C133.267 19.0876 132.415 19.5091 131.097 19.5091C129.424 19.5091 127.396 18.4124 126.41 17.4284H126.026L123.505 20.6328V21.0261C125.121 22.8519 128.026 24.1434 131.4 24.1434Z" fill="#8F93C4"/>
<path fill-rule="evenodd" clip-rule="evenodd" d="M37.7397 40.919C37.7428 40.9263 37.7459 40.9335 37.749 40.9407V40.9304C37.7459 40.9266 37.7428 40.9228 37.7397 40.919Z" fill="#8F93C4"/>
<path d="M23.4444 28.4024C18.672 25.7169 10.5196 21.5823 3.19006 13.7192C3.85466 16.5559 7.25992 22.7892 21.9 30.5677C25.9534 32.8123 32.8059 34.9174 37.7397 40.919C36.4212 37.8754 33.7674 33.9716 23.4444 28.4024Z" fill="#E7005E"/>
<path d="M37.0908 35.726C35.8426 32.1257 33.5893 27.5157 22.9001 20.6713C17.696 17.2196 10.0512 12.8851 0 1.83691C0.719029 4.81582 3.89643 12.5623 19.9125 22.6188C25.1736 26.2268 31.9639 28.4523 37.0908 35.726Z" fill="#E7005E"/>
</svg>
