<svg width="192" height="24" viewBox="0 0 192 24" fill="none" xmlns="http://www.w3.org/2000/svg">
<path d="M124.348 22.6614H119.098V1.46411L135.984 1.47787C135.984 1.47787 139.076 1.36379 141.042 3.28591C141.042 3.28591 143.05 4.94419 143.05 8.99737V22.6581H137.813V8.64428C137.813 8.64428 137.878 7.21489 137.385 6.71327C137.385 6.71327 136.95 6.16842 136.122 6.16842H124.335L124.346 22.6538L124.348 22.6614ZM146.699 22.6577V2.81192V1.47994H167.77V6.19058L151.918 6.18937V9.79083H162.93V14.3395H151.918V17.9532H167.868V22.6651H146.687L146.699 22.6577ZM109.948 22.6577V2.81192V1.47994H115.177V22.6651H109.948V22.6577ZM175.296 22.6577V6.18449H170.361V1.47385H189.991V6.18449H180.528V22.6577H175.3H175.296ZM92.6806 22.6577V6.18449H87.7452V1.47385H107.376V6.18449H97.9126V22.6577H92.6843H92.6806ZM76.9145 9.77622C78.192 9.76648 78.9563 9.77744 79.264 9.59213C79.264 9.59213 79.8009 9.29846 79.807 8.66827L79.8082 7.28271C79.8082 6.64959 79.2652 6.35885 79.2652 6.35885C78.8576 6.13969 78.1668 6.18084 76.5268 6.17926H66.3409V9.77586H77.1483L76.9145 9.77622ZM79.7317 22.6577V15.428C79.7317 14.7781 79.1825 14.5057 79.1825 14.5057C78.9349 14.3535 78.1932 14.3262 77.1013 14.3262H77.3551H66.3409V22.6565H61.1126V2.81071V1.47872H77.4326C80.2511 1.48724 82.1969 1.89731 83.5372 3.18449C84.8541 4.5116 85.0289 6.24781 85.0363 8.05463V9.56316C85.0533 11.0985 84.2378 12.4986 83.2652 13.3144L83.4607 13.4103C83.8576 13.6005 84.0746 13.8699 84.0746 13.8699C84.8145 14.8044 84.8054 15.6086 84.8038 16.5972V22.6618H79.7318L79.7317 22.6577ZM0.667073 1.47263V2.80584V22.6517H5.89538V14.3286H21.7354V9.77744H5.89538V6.17841H24.3077V1.46776H0.664612L0.667073 1.47263Z" fill="#8F93C4"/>
<path d="M188.225 18.9113V19.8839H189.141C189.388 19.8839 189.628 19.8169 189.665 19.4531C189.718 18.9707 189.365 18.9113 189.141 18.9113H188.225ZM187.858 18.5917H189.133C189.576 18.5917 190.003 18.6739 190.04 19.3115C190.056 19.6767 189.943 19.8092 189.665 20.0177C189.959 20.2033 189.967 20.2475 190.011 20.7375C190.04 21.1088 189.988 21.1682 190.146 21.4132H189.711L189.651 21.0571C189.591 20.7222 189.756 20.2033 189.163 20.2033H188.225V21.4133H187.857L187.858 18.5917ZM188.818 17.8125C187.557 17.8125 186.53 18.8291 186.538 20.0844C186.538 21.3311 187.558 22.3478 188.826 22.3417C190.088 22.3417 191.115 21.3311 191.115 20.0771C191.115 18.8291 190.087 17.8125 188.818 17.8125ZM188.826 22.6363C187.394 22.6363 186.237 21.4933 186.237 20.0771C186.231 18.666 187.394 17.5154 188.826 17.5154C190.253 17.5154 191.416 18.666 191.416 20.0771C191.416 21.4943 190.253 22.6315 188.826 22.6363Z" fill="#8F93C4"/>
<path d="M53.9237 22.8683C55.6222 22.2975 56.944 20.3626 57.2616 17.93V17.2268H48.5539V22.8689H53.9225L53.9237 22.8683ZM57.2628 6.88204V6.24588C56.929 3.70732 55.5089 1.70691 53.6985 1.23694H48.5551V6.88143L57.2628 6.88204ZM26.6166 17.2274V17.9245C26.932 20.3595 28.2536 22.2979 29.9569 22.8689H35.2985V17.2268L26.6166 17.2274ZM30.1797 1.2412C28.3717 1.71141 26.9477 3.7128 26.6166 6.25501V6.88667H35.2985V1.24217L30.1797 1.2412ZM57.2689 9.23553H48.5613V14.88H57.2689V9.23553ZM37.6751 22.8719H46.1933V17.2299H37.6751V22.8719ZM46.1933 1.23633H37.6751V6.88082H46.1933V1.23633ZM26.624 14.8727H35.3059V9.22823H26.624V14.8727Z" fill="#E7005E"/>
</svg>
