<svg width="108" height="52" viewBox="0 0 108 52" fill="none" xmlns="http://www.w3.org/2000/svg">
<path fill-rule="evenodd" clip-rule="evenodd" d="M100.605 43.9348C100.636 42.85 101.523 41.9809 102.617 41.9809C103.727 41.9809 104.628 42.8804 104.628 43.9887C104.628 45.0971 103.727 45.9966 102.617 45.9966C102.05 45.9966 101.54 45.7641 101.172 45.3868C100.821 45.0264 100.605 44.5311 100.605 43.9887V43.9348ZM104.139 43.8034V44.0628C104.139 44.9084 103.454 45.5923 102.607 45.5923C101.76 45.5923 101.074 44.9084 101.074 44.0628V43.8034C101.074 42.9578 101.76 42.274 102.607 42.274C103.454 42.274 104.139 42.9578 104.139 43.8034Z" fill="#E7005E"/>
<path fill-rule="evenodd" clip-rule="evenodd" d="M21.7417 45.8922V43.2644H3.38849V45.8922H21.7417ZM21.7417 40.8759V38.2515H3.38849V40.8759H21.7417ZM8.63324 35.8596H16.5004V33.2318H8.63324V35.8596ZM8.63324 30.8433H16.5004V28.2189H8.63324V30.8433ZM8.63324 25.8337H16.5004V23.206H8.63324V25.8337ZM8.63324 20.8208H16.5004V18.193H8.63324V20.8208ZM3.38849 15.8045H21.7417V13.1767H12.5651H3.38849V15.8045ZM3.38849 10.7916H21.7417V8.16382H3.38849V10.7916ZM24.3607 40.8792H52.3395C52.7816 40.1246 53.1461 39.2487 53.379 38.3222L53.3925 38.2515H24.3641L24.3607 40.8792ZM50.1457 28.2256H29.6055V30.8534H52.3327C51.7387 29.8326 51.0097 28.9668 50.1559 28.2391L50.1424 28.229L50.1457 28.2256ZM29.6055 23.2093V25.8371H50.1457C51.0097 25.0959 51.7387 24.2301 52.3091 23.2565L52.3361 23.2093H29.6055ZM52.3395 13.1835H24.3641V15.8112H53.3992C53.1529 14.8174 52.7884 13.9415 52.3192 13.1363L52.3462 13.1835H52.3395ZM43.6657 8.16719H24.3607V10.7949H50.4259C48.6574 9.16775 46.2881 8.16719 43.6826 8.16719H43.6691H43.6657ZM29.6089 20.8208H37.476V18.193H29.6089V20.8208ZM44.8639 20.8208H53.3317C53.5511 20.0325 53.6794 19.1296 53.6827 18.1964H44.8639V20.8208ZM29.6089 35.8596H37.476V33.2318H29.6089V35.8596ZM44.8605 33.2352V35.8629H53.6827C53.6794 34.9264 53.5545 34.0235 53.3149 33.1644L53.3317 33.2352H44.8605ZM24.3641 45.8652L43.6725 45.8922H43.6961C46.2947 45.8922 48.6615 44.8977 50.4292 43.2644H24.3641V45.8652ZM76.8015 45.8888L77.7161 43.261H75.8936L76.8015 45.8888ZM75.0532 40.8725H78.5531L79.4711 38.2481H74.1319L75.0532 40.8725ZM73.2982 35.8562H80.3081L81.2261 33.2318H72.3769L73.2982 35.8562ZM71.5399 30.8466H82.0665L82.9845 28.2189H70.6185L71.5399 30.8466ZM61.074 20.814H75.2422L74.331 18.1897H61.074V20.814ZM80.1124 15.8045H97.7839V13.1767H81.0236L80.1124 15.8045ZM82.7651 8.16382L81.8539 10.7916H97.7805V8.16382H82.7651ZM55.8292 45.8888H68.9377V43.261H55.8292V45.8888ZM55.8292 40.8725H68.9377V38.2481H55.8292V40.8725ZM61.074 35.8562H68.9411V33.2352H61.074V35.8562ZM61.074 30.8466H68.9411V28.2189H61.074V30.8466ZM92.5357 18.193H79.2855L78.3709 20.8208H92.5391L92.5357 18.193ZM84.6754 25.8337H92.5357V23.206H77.544L76.8049 25.3284L76.0657 23.206H61.074V25.8337H68.9411V23.4182L69.7849 25.8337H83.8282L84.672 23.4182L84.6754 25.8337ZM84.6754 30.8466H92.5357V28.2189H84.6686L84.6754 30.8466ZM84.6754 35.8596H92.5357V33.2318H84.6686L84.6754 35.8596ZM84.6754 40.8691H97.7805V38.2481H84.672L84.6754 40.8691ZM84.6754 45.8888H97.7805V43.261H84.672L84.6754 45.8888ZM73.4974 15.8011L72.5861 13.1767H55.8292V15.8045L73.4974 15.8011ZM71.7559 10.7916L70.8446 8.16382H55.8292V10.7916H71.7559Z" fill="#8E94C2"/>
<path fill-rule="evenodd" clip-rule="evenodd" d="M102.306 44.996H101.797V42.9006H102.745C102.769 42.8972 102.796 42.8972 102.823 42.8972C103.174 42.8972 103.457 43.1802 103.457 43.5306V43.5642C103.461 43.5811 103.461 43.6013 103.461 43.6249C103.461 43.8809 103.305 44.0999 103.083 44.1942L103.548 44.9927H102.988L102.6 44.2785H102.306V44.996ZM102.941 43.6721C102.941 43.8237 102.846 43.8944 102.688 43.8944L102.31 43.891V43.3015H102.688C102.85 43.3015 102.941 43.3722 102.941 43.5205V43.6721Z" fill="#E7005E"/>
</svg>
