<svg width="174" height="50" viewBox="0 0 174 50" fill="none" xmlns="http://www.w3.org/2000/svg">
<g clip-path="url(#clip0_111_33)">
<path d="M174 23.8316V20.7946H170.2V16.0733L170.072 16.1124L166.503 17.1962L166.433 17.2174V20.7948H160.799V18.8019C160.799 17.8739 161.008 17.1638 161.42 16.6902C161.829 16.2223 162.415 15.9844 163.161 15.9844C163.698 15.9844 164.253 16.1099 164.812 16.3573L164.953 16.4194V13.2211L164.887 13.197C164.365 13.011 163.656 12.9172 162.776 12.9172C161.668 12.9172 160.661 13.1566 159.782 13.631C158.904 14.1061 158.212 14.7844 157.728 15.6467C157.245 16.508 157.001 17.5028 157.001 18.6036V20.7946H154.355V23.8316H157.001V36.6258H160.799V23.8316H166.433V31.9621C166.433 35.3106 168.024 37.0075 171.163 37.0075C171.678 37.0075 172.221 36.9475 172.775 36.8301C173.34 36.7095 173.724 36.5891 173.95 36.4604L174 36.431V33.366L173.846 33.4674C173.639 33.6037 173.383 33.7151 173.082 33.798C172.78 33.8823 172.527 33.9246 172.331 33.9246C171.596 33.9246 171.052 33.728 170.715 33.3399C170.373 32.9484 170.2 32.2636 170.2 31.3058V23.8316H174ZM145.872 33.9251C144.493 33.9251 143.406 33.4714 142.64 32.5777C141.869 31.6795 141.479 30.3988 141.479 28.7718C141.479 27.0931 141.869 25.7792 142.64 24.8652C143.407 23.9571 144.484 23.4962 145.841 23.4962C147.158 23.4962 148.206 23.9364 148.958 24.8052C149.712 25.6785 150.095 26.9818 150.095 28.6801C150.095 30.3992 149.735 31.7197 149.025 32.6031C148.319 33.4797 147.259 33.9251 145.872 33.9251ZM146.041 20.4133C143.41 20.4133 141.321 21.1782 139.832 22.6868C138.343 24.1956 137.588 26.2836 137.588 28.8932C137.588 31.3719 138.325 33.3657 139.778 34.8182C141.231 36.2712 143.209 37.0072 145.656 37.0072C148.206 37.0072 150.253 36.2316 151.742 34.7021C153.231 33.1742 153.985 31.106 153.985 28.5573C153.985 26.0398 153.278 24.0312 151.881 22.5884C150.484 21.1449 148.519 20.4133 146.041 20.4133ZM131.464 20.4133C129.675 20.4133 128.195 20.8675 127.064 21.763C125.926 22.6639 125.349 23.8455 125.349 25.2753C125.349 26.0185 125.474 26.6786 125.719 27.2386C125.966 27.8004 126.347 28.295 126.854 28.7101C127.357 29.1219 128.134 29.5532 129.163 29.9921C130.028 30.3454 130.673 30.6442 131.083 30.8798C131.484 31.1106 131.768 31.3427 131.929 31.5687C132.085 31.7899 132.164 32.0926 132.164 32.4661C132.164 33.5297 131.361 34.0472 129.71 34.0472C129.097 34.0472 128.399 33.9203 127.633 33.67C126.874 33.4236 126.156 33.0626 125.507 32.5999L125.349 32.4876V36.1171L125.407 36.1439C125.945 36.3901 126.622 36.5977 127.421 36.7611C128.218 36.9247 128.942 37.0078 129.571 37.0078C131.513 37.0078 133.077 36.5515 134.217 35.6506C135.366 34.7435 135.947 33.534 135.947 32.0548C135.947 30.9877 135.634 30.0726 135.017 29.3346C134.404 28.6026 133.339 27.9305 131.855 27.3365C130.672 26.8654 129.915 26.4743 129.602 26.1742C129.301 25.8842 129.148 25.474 129.148 24.9547C129.148 24.4943 129.337 24.1255 129.724 23.8268C130.115 23.5266 130.659 23.3739 131.341 23.3739C131.974 23.3739 132.621 23.4731 133.265 23.6676C133.909 23.862 134.474 24.1224 134.946 24.441L135.101 24.5463V21.1034L135.041 21.078C134.606 20.8927 134.032 20.7342 133.335 20.6055C132.641 20.4778 132.011 20.4133 131.464 20.4133ZM115.447 33.9251C114.069 33.9251 112.981 33.4714 112.215 32.5777C111.445 31.6795 111.055 30.3992 111.055 28.7718C111.055 27.0931 111.445 25.7792 112.216 24.8652C112.982 23.9571 114.059 23.4962 115.417 23.4962C116.733 23.4962 117.782 23.9364 118.533 24.8052C119.288 25.6785 119.671 26.9818 119.671 28.6801C119.671 30.3992 119.31 31.7197 118.6 32.6031C117.895 33.4797 116.834 33.9251 115.447 33.9251ZM115.616 20.4133C112.985 20.4133 110.896 21.1782 109.407 22.6868C107.919 24.1956 107.163 26.2836 107.163 28.8932C107.163 31.3729 107.901 33.3657 109.354 34.8182C110.807 36.2712 112.785 37.0072 115.232 37.0072C117.781 37.0072 119.829 36.2316 121.318 34.7021C122.807 33.1742 123.561 31.106 123.561 28.5573C123.561 26.0398 122.853 24.0312 121.456 22.5884C120.059 21.1449 118.094 20.4133 115.616 20.4133ZM101.397 23.5363V20.7946H97.6452V36.6255H101.397V28.5274C101.397 27.1504 101.712 26.0191 102.333 25.1647C102.946 24.3204 103.762 23.8926 104.759 23.8926C105.097 23.8926 105.477 23.9479 105.888 24.0573C106.294 24.166 106.589 24.2842 106.763 24.4084L106.92 24.5219V20.7676L106.86 20.7417C106.51 20.5944 106.016 20.52 105.39 20.52C104.447 20.52 103.604 20.8207 102.881 21.4127C102.246 21.9331 101.788 22.6466 101.437 23.5363H101.397ZM90.9257 20.4133C89.2043 20.4133 87.6689 20.7796 86.3629 21.5018C85.0542 22.2256 84.0421 23.259 83.3535 24.573C82.6679 25.8838 82.3199 27.415 82.3199 29.1226C82.3199 30.6184 82.6573 31.991 83.3244 33.2008C83.9918 34.4126 84.9364 35.3606 86.1321 36.0181C87.3262 36.6747 88.7063 37.0077 90.2343 37.0077C92.0174 37.0077 93.5399 36.6539 94.7606 35.9561L94.8099 35.928V32.5164L94.6522 32.6306C94.0992 33.0304 93.4813 33.3495 92.8165 33.5793C92.1533 33.809 91.5487 33.9251 91.0185 33.9251C89.5462 33.9251 88.3642 33.4679 87.5063 32.5665C86.6465 31.6639 86.2106 30.3965 86.2106 28.8017C86.2106 27.1968 86.6652 25.8969 87.5612 24.9377C88.4544 23.9813 89.6386 23.4962 91.0804 23.4962C92.3137 23.4962 93.5155 23.9106 94.6525 24.7292L94.8099 24.8426V21.2479L94.759 21.2195C94.3312 20.9817 93.7476 20.7855 93.0232 20.6366C92.3017 20.4881 91.5961 20.4133 90.9257 20.4133ZM79.7356 20.7948H75.9835V36.6255H79.7356V20.7948ZM77.8979 14.0508C77.2804 14.0508 76.7417 14.2595 76.2992 14.6729C75.8549 15.0875 75.6295 15.6096 75.6295 16.2257C75.6295 16.8321 75.8522 17.3446 76.2923 17.7482C76.7296 18.1506 77.2699 18.3545 77.8981 18.3545C78.5261 18.3545 79.0684 18.1506 79.5109 17.7488C79.9563 17.3446 80.1822 16.8322 80.1822 16.2257C80.1822 15.6311 79.9624 15.1144 79.5293 14.6896C79.0965 14.2657 78.5475 14.0508 77.8979 14.0508ZM68.536 19.6268V36.6255H72.3653V14.5354H67.0654L60.3289 30.9433L53.7915 14.5354H48.2758V36.6253H51.8743V19.6251H51.9979L58.9012 36.6255H61.6169L68.4124 19.6268H68.536Z" fill="#8E94C2"/>
<path d="M17.6514 24.672H0V7.15381H17.6514V24.672Z" fill="#9E0040"/>
<path d="M37.1404 24.672H19.4894V7.15381H37.1404V24.672Z" fill="#B42F65"/>
<path d="M17.6509 44.0207H0V26.5027H17.6509V44.0207Z" fill="#FF036A"/>
<path d="M37.1404 44.0207H19.4894V26.5027H37.1404V44.0207Z" fill="#E7005E"/>
</g>
<defs>
<clipPath id="clip0_111_33">
<rect width="174" height="49" fill="white" transform="translate(0 0.546875)"/>
</clipPath>
</defs>
</svg>
