<svg width="183" height="34" viewBox="0 0 183 34" fill="none" xmlns="http://www.w3.org/2000/svg">
<g clip-path="url(#clip0_113_91)">
<path d="M77.7619 6.60083C75.4082 6.60083 72.9631 7.2362 69.9369 8.84128L71.6181 12.9585C74.2462 11.5053 76.417 10.8699 78.0067 10.8699C79.8103 10.8699 80.6052 11.536 80.6052 12.4138V12.4737C80.6052 13.0798 80.1156 13.4128 78.924 13.534L76.846 13.7458C71.6491 14.2906 69.5092 16.531 69.5092 19.6186V19.8304C69.5092 22.7675 71.9544 25.0679 75.4082 25.0679C77.6826 25.0679 79.6583 24.1169 80.8594 22.4385L81.2467 24.7655H85.9541V14.2C85.9541 9.20492 83.0504 6.60083 77.7619 6.60083ZM77.3033 21.0399C75.5616 21.0399 74.7358 20.3739 74.7358 19.3442V19.2843C74.7358 18.3759 75.2549 17.7099 77.15 17.4381L77.9758 17.3169C79.1822 17.1504 79.9233 16.9306 80.6052 16.5217V17.8617C80.6052 19.8904 79.3208 21.0399 77.3033 21.0399Z" fill="#8F93C4"/>
<path d="M18.395 21.6725L33.499 6.72198L27.4736 0.758545L21.4481 6.72198L24.4474 9.68972L9.35013 24.6429L15.3689 30.6104L21.3943 24.6429L18.395 21.6725Z" fill="#E7005E"/>
<path d="M15.4336 0.756988L0.331299 15.7139L6.3532 21.6778L21.4555 6.7209L15.4336 0.756988Z" fill="#E7005E"/>
<path d="M36.4933 9.6962L21.391 24.6531L27.4129 30.617L42.5152 15.6601L36.4933 9.6962Z" fill="#E7005E"/>
<path d="M94.3548 0.546875H89.0059V24.7629H94.3548V0.546875Z" fill="#8F93C4"/>
<path d="M60.5195 6.60079C58.0878 6.60079 56.1349 7.6664 55.0602 9.33542L54.6514 6.90316H49.944V30.8129H55.2929V22.5237C56.3111 24.0782 58.237 25.0612 60.5195 25.0612C64.7991 25.0612 68.284 21.3076 68.284 16.13V15.524C68.284 10.3504 64.7991 6.59546 60.5195 6.59546M62.7817 15.9808C62.7817 18.7048 61.3453 20.6735 58.9606 20.6735C56.576 20.6735 55.1396 18.7062 55.1396 15.9808V15.6785C55.1396 12.9532 56.576 10.9858 58.9606 10.9858C61.3453 10.9858 62.7817 12.9532 62.7817 15.6785V15.9808Z" fill="#8F93C4"/>
<path d="M166.57 6.60083C161.099 6.60083 157.247 10.3545 157.247 15.532V16.1381C157.247 21.3143 161.099 25.0692 166.57 25.0692C172.042 25.0692 175.894 21.3156 175.894 16.1381V15.532C175.894 10.3558 172.042 6.60083 166.57 6.60083ZM170.391 15.9862C170.391 18.7102 168.955 20.6789 166.57 20.6789C164.186 20.6789 162.749 18.7115 162.749 15.9862V15.6839C162.749 12.9585 164.186 10.9912 166.57 10.9912C168.955 10.9912 170.391 12.9585 170.391 15.6839V15.9862Z" fill="#8F93C4"/>
<path d="M180.827 7.69176V7.60119C180.827 7.08703 180.43 6.72339 179.727 6.72339H178.504V9.50864H179.085V8.56956H179.731L180.216 9.50864H180.858L180.261 8.40706C180.624 8.2965 180.827 8.02743 180.827 7.69176ZM179.084 7.23755H179.725C180.093 7.23755 180.244 7.35876 180.244 7.63182V7.66246C180.244 7.90489 180.091 8.05541 179.725 8.05541H179.084V7.23755Z" fill="#8F93C4"/>
<path d="M179.616 5.2395C177.966 5.2395 176.713 6.48094 176.713 8.11533C176.713 9.74971 177.966 10.9912 179.616 10.9912C181.267 10.9912 182.52 9.74971 182.52 8.11533C182.52 6.48094 181.267 5.2395 179.616 5.2395ZM179.616 10.5969C178.18 10.5969 177.14 9.56722 177.14 8.11399C177.14 6.66076 178.18 5.63111 179.616 5.63111C181.053 5.63111 182.092 6.66076 182.092 8.11399C182.092 9.56722 181.053 10.5969 179.616 10.5969Z" fill="#8F93C4"/>
<path d="M141.523 0.546875H136.174V24.7629H141.523V0.546875Z" fill="#8F93C4"/>
<path d="M152.045 20.6736C150.486 20.6736 149.905 19.917 149.905 18.2827V10.9859H156.202V6.89924H149.905V2.81128L144.556 3.5985V18.7968C144.556 22.9447 146.696 25.064 150.975 25.064C152.87 25.064 155.102 24.4885 156.936 23.4589L155.408 19.7052C154.336 20.2807 152.839 20.675 152.045 20.675" fill="#8F93C4"/>
<path d="M124.863 6.60083C122.509 6.60083 120.064 7.2362 117.038 8.84128L118.719 12.9585C121.347 11.5053 123.518 10.8699 125.107 10.8699C126.911 10.8699 127.706 11.536 127.706 12.4138V12.4737C127.706 13.0798 127.216 13.4128 126.025 13.534L123.947 13.7458C118.75 14.2906 116.61 16.531 116.61 19.6186V19.8304C116.61 22.7675 119.055 25.0679 122.509 25.0679C124.782 25.0679 126.759 24.1169 127.96 22.4385L128.348 24.7655H133.055V14.2C133.055 9.20492 130.151 6.60083 124.863 6.60083ZM124.404 21.0399C122.661 21.0399 121.837 20.3739 121.837 19.3442V19.2843C121.837 18.3759 122.356 17.7099 124.251 17.4381L125.077 17.3169C126.283 17.1504 127.024 16.9306 127.705 16.5217V17.8617C127.705 19.8904 126.422 21.0399 124.404 21.0399Z" fill="#8F93C4"/>
<path d="M106.06 6.60083C100.589 6.60083 96.7368 10.3545 96.7368 15.532V16.1381C96.7368 21.3143 100.589 25.0692 106.06 25.0692C111.531 25.0692 115.383 21.3156 115.383 16.1381V15.532C115.382 10.3558 111.531 6.60083 106.06 6.60083ZM109.88 15.9862C109.88 18.7102 108.443 20.6789 106.059 20.6789C103.674 20.6789 102.238 18.7115 102.238 15.9862V15.6839C102.238 12.9585 103.674 10.9912 106.059 10.9912C108.443 10.9912 109.88 12.9585 109.88 15.6839V15.9862Z" fill="#8F93C4"/>
<path d="M131.171 33.4211L129.234 30.8903H129.22V33.4211H127.956V29.0654H129.328L131.224 31.5297H131.238V29.0654H132.502V33.4211H131.171Z" fill="#8F93C4"/>
<path d="M135.501 31.6762V32.3555H138.191L138.057 33.4211H134.17V29.0654H138.057V30.1177H135.501V30.7171H137.519V31.6762H135.501Z" fill="#8F93C4"/>
<path d="M140.881 33.4211V30.1843H139.267V29.0654H143.571L143.706 30.1843H142.092V33.4211H140.881Z" fill="#8F93C4"/>
<path d="M150.162 32.0891L150.834 29.0654H152.179L150.969 33.4211H149.355L148.548 30.7837H148.413L147.606 33.4211H145.858L144.782 29.0654H146.127L146.934 32.0891L147.875 29.0654H149.22L150.027 32.0891H150.162Z" fill="#8F93C4"/>
<path d="M153.12 31.2365C153.12 29.8165 154.094 28.9268 155.634 28.9268C157.174 28.9268 158.149 29.8165 158.149 31.2365C158.149 32.6564 157.176 33.5462 155.634 33.5462C154.094 33.5462 153.12 32.6551 153.12 31.2365ZM156.835 31.2365C156.835 30.4839 156.395 30.035 155.634 30.035C154.873 30.035 154.433 30.4839 154.433 31.2365C154.433 31.9904 154.873 32.438 155.628 32.438C156.389 32.438 156.835 31.9891 156.835 31.2365Z" fill="#8F93C4"/>
<path d="M159.576 29.0654H162.141C163.31 29.0654 163.883 29.6129 163.883 30.6279C163.883 31.3245 163.594 31.7987 163.028 32.0225L164.071 33.4238H162.576L161.765 32.2783H160.897V33.4238H159.576V29.0654ZM161.97 31.2566C162.41 31.2566 162.568 31.0142 162.568 30.6838C162.568 30.3535 162.41 30.1177 161.97 30.1177H160.896V31.2566H161.97Z" fill="#8F93C4"/>
<path d="M168.588 31.1567L170.336 33.4078V33.4211H168.857L167.512 31.7428H166.974V33.4211H165.629V29.0654H166.974V30.6638H167.512L168.722 29.0654H170.336L168.588 31.1567Z" fill="#8F93C4"/>
<path d="M171.412 33.128V31.9332H171.419C172.154 32.3008 172.871 32.4807 173.493 32.4807C173.965 32.4807 174.203 32.3688 174.203 32.1503C174.203 31.9319 174.045 31.8759 173.103 31.7267C172.072 31.5656 171.387 31.2592 171.387 30.3814C171.387 29.5662 172.11 28.9375 173.524 28.9375C174.09 28.9375 174.68 29.056 175.228 29.2865V30.4693L175.221 30.476C174.699 30.1776 173.996 29.9898 173.43 29.9898C172.926 29.9898 172.726 30.1083 172.726 30.3068C172.726 30.5626 173.034 30.5865 173.807 30.7184C174.838 30.8929 175.524 31.1793 175.524 32.101C175.524 32.8163 174.983 33.533 173.431 33.533C172.664 33.533 172.054 33.3771 171.412 33.128Z" fill="#8F93C4"/>
</g>
<defs>
<clipPath id="clip0_113_91">
<rect width="183" height="33" fill="white" transform="translate(0 0.546875)"/>
</clipPath>
</defs>
</svg>
